<svg width="2059" height="2207" viewBox="0 0 2059 2207" fill="none" xmlns="http://www.w3.org/2000/svg">
<path d="M1164.91 1491.47C1152 1549.03 1068.4 1583.68 927.632 1531.71C781.332 1478.06 718.017 1350.09 702.035 1312.09C788.708 1164.56 728.467 1062.29 728.467 1062.29C928.246 1046.65 1102.82 1259 1102.82 1259L1129.87 1364.06C1132.33 1373 1137.25 1380.82 1144.62 1386.41C1157.53 1407.09 1172.9 1454.59 1164.91 1491.47Z" fill="white"/>
<path d="M698.964 1313.76C710.643 1297.56 718.02 1278.56 722.937 1260.12C732.158 1221.56 735.231 1182.44 735.846 1143.32V1128.79C734.002 1114.26 728.47 1099.18 722.323 1085.76C714.331 1067.88 743.223 1056.71 752.443 1074.59C753.673 1076.82 753.672 1080.74 753.672 1082.97C755.517 1158.97 759.205 1256.76 706.34 1319.91C702.652 1323.26 695.275 1318.24 698.964 1313.76Z" fill="#473A53"/>
<path d="M1109.59 1257.88C1118.81 1262.91 1121.88 1269.62 1123.11 1276.32C1126.8 1289.74 1125.57 1304.27 1129.26 1318.24C1132.33 1331.65 1141.55 1344.5 1144.01 1358.47C1147.08 1373 1156.3 1403.74 1159.99 1418.82C1161.22 1422.18 1158.76 1426.09 1154.46 1426.65C1152 1427.21 1150.16 1426.65 1148.31 1425.53C1140.32 1419.38 1136.63 1413.24 1131.71 1405.41C1123.72 1392 1118.19 1379.71 1113.27 1364.62C1108.97 1351.21 1110.81 1336.68 1107.13 1322.71C1104.05 1309.29 1095.45 1296.44 1092.37 1282.47C1090.53 1275.77 1089.91 1268.5 1095.45 1260.12C1099.14 1256.77 1105.28 1255.65 1109.59 1257.88Z" fill="#473A53"/>
<path d="M1153.85 1405.41C1036.44 1399.82 940.543 1366.29 847.108 1214.85C925.79 1278 1018.61 1302.03 1116.35 1313.21L1129.26 1364.62C1131.72 1373.56 1146.47 1399.82 1153.85 1405.41Z" fill="#473A53"/>
<path d="M1148.93 1384.74C1169.83 1420.5 1182.12 1465.21 1169.22 1504.88C1159.38 1532.82 1131.1 1553.5 1100.37 1561.32C1029.06 1578.65 946.692 1551.27 883.378 1520.53C805.31 1480.85 747.528 1414.35 710.645 1341.71C708.187 1336.12 716.792 1331.65 720.481 1337.24C733.389 1360.71 748.142 1383.62 764.739 1404.29C781.337 1425.53 800.392 1445.09 821.907 1462.41C884.607 1513.82 969.437 1545.68 1054.27 1545.68C1141.55 1543.44 1174.75 1501.53 1154.46 1424.41C1151.39 1412.12 1146.47 1399.26 1139.71 1388.65C1136.02 1384.18 1145.24 1379.15 1148.93 1384.74Z" fill="#473A53"/>
<path d="M1386.82 713.589C1397.88 760.53 1403.42 798.53 1373.3 923.706C1343.79 1048.32 1415.71 1074.03 1245.44 1273.53C1175.98 1355.12 1007.55 1332.21 871.081 1247.82C824.978 1219.32 805.308 1146.12 770.884 1094.15C743.837 1053.35 731.543 1095.82 695.89 1060.62C647.328 1012.56 588.931 915.883 617.823 744.883C664.54 467.706 906.12 435.295 1085 466.03C1265.11 497.324 1357.31 590.089 1386.82 713.589Z" fill="white"/>
<path d="M726.625 1110.35C712.487 1088.56 694.046 1069.56 676.834 1049.44C660.237 1028.77 646.714 1005.85 635.649 982.383C562.499 819.206 590.775 589.53 770.27 493.412C844.649 454.294 934.396 444.795 1018 450.942C1196.88 462.677 1361 537.559 1399.73 709.677C1420.63 785.677 1392.35 863.912 1376.37 938.236C1368.99 975.118 1375.14 1013.12 1374.53 1051.12C1373.91 1089.68 1362.23 1128.24 1346.25 1164C1336.41 1188.59 1319.2 1210.38 1301.38 1230.5C1271.87 1262.91 1242.36 1295.88 1204.87 1321.03C1196.26 1326.62 1180.89 1329.41 1170.44 1330.53C1141.55 1334.44 1113.28 1335.56 1084.38 1333.88C971.278 1329.41 850.181 1279.68 804.693 1180.21C802.849 1176.29 808.996 1173.5 811.455 1176.85C870.467 1261.79 978.655 1303.71 1086.23 1309.29C1119.42 1310.97 1153.23 1310.41 1185.81 1304.27C1201.79 1297 1215.93 1284.15 1229.45 1272.41C1262.65 1242.24 1296.46 1209.82 1320.43 1172.94C1349.32 1123.21 1365.3 1069 1360.39 1012.56C1359.16 987.412 1358.54 961.147 1364.08 936C1368.99 910.853 1375.14 886.824 1378.83 861.118C1382.52 836.53 1384.36 811.383 1384.36 786.795C1381.29 714.706 1355.47 640.383 1305.06 584.5C1193.8 458.765 930.708 425.795 782.564 511.853C689.128 564.383 645.484 662.736 631.346 758.295C609.831 872.853 615.978 985.736 716.175 1069L745.681 1096.94C757.361 1109.24 736.461 1123.77 726.625 1110.35Z" fill="#473A53"/>
<path d="M799.158 932.647C799.158 932.647 780.102 848.823 690.355 858.882C612.902 867.823 585.855 1036.59 761.661 1083.53" fill="white"/>
<path d="M753.672 1010.32C739.534 1003.06 729.699 990.765 729.084 975.677C729.699 964.5 731.543 951.647 728.469 940.471C726.625 929.853 714.331 927.059 705.111 927.618C695.275 929.294 689.128 940.471 687.284 949.412C687.284 949.971 686.669 951.647 686.669 952.206C686.055 955 681.137 955 679.908 952.206C671.916 930.412 689.743 906.383 715.561 909.177C751.828 911.412 756.746 946.059 749.984 972.324C746.296 983.5 751.214 993.559 757.975 1003.06L759.205 1004.74C762.278 1008.09 757.361 1012.56 753.672 1010.32Z" fill="#473A53"/>
<path d="M1245.44 873.412C1254.66 913.088 1271.87 949.971 1293.38 984.618C1312.44 1027.09 1263.26 1067.32 1219.62 1065.65C1214.7 1065.65 1214.09 1059.5 1218.39 1058.38C1246.05 1050.56 1271.25 1033.79 1275.56 1008.09C1277.4 1000.26 1274.94 993.559 1270.64 986.853C1250.35 952.206 1238.06 912.53 1241.13 873.412C1241.13 870.618 1245.44 870.618 1245.44 873.412Z" fill="#473A53"/>
<path d="M796.087 933.206C781.949 900.236 751.214 868.942 710.028 869.501C706.34 868.942 700.193 870.059 696.505 870.059C686.055 870.618 677.449 873.971 669.458 880.677C630.116 916.442 636.878 979.589 668.843 1019.27C679.908 1033.24 694.046 1045.53 710.028 1055.59C726.011 1065.65 743.837 1073.47 762.893 1080.18C767.196 1081.29 765.352 1087.44 761.049 1086.88C719.864 1079.06 680.522 1060.62 653.475 1029.88C611.675 984.059 603.069 907.501 652.861 862.795C663.925 853.854 679.293 847.148 694.661 847.148C699.578 847.148 706.955 846.03 711.872 847.148C737.69 848.265 762.278 860.001 778.261 878.442C792.399 894.089 800.39 913.089 802.849 932.089C802.849 935.442 797.316 936.559 796.087 933.206Z" fill="#473A53"/>
<path d="M1422.94 798.311C1449.81 703.445 1403.24 637.531 1369.8 605.499C1354.28 562.378 1328.01 519.873 1286.21 487.224C1277.85 480.448 1268.9 474.288 1258.75 468.744C1250.39 463.816 1241.43 459.504 1232.48 455.192C1153.66 420.079 1027.69 378.806 902.9 400.982C855.135 408.991 807.371 426.855 762.591 457.04C761.994 457.04 761.994 457.656 761.994 457.656C758.412 460.12 754.829 462.584 751.844 465.048C743.485 454.576 733.932 445.335 723.185 436.711C648.553 378.806 567.353 388.662 511.229 466.28C455.106 543.281 445.553 658.476 520.185 716.381C543.471 734.246 569.741 745.334 596.609 749.646C596.012 752.726 596.012 756.422 595.415 759.502C562.577 1063.2 787.668 1199.95 770.353 1104.47C765.577 1102.62 763.188 1100.77 763.188 1099.54C597.803 1045.33 624.074 862.992 698.706 853.136C725.574 849.44 745.277 856.216 760.8 866.072C766.771 872.232 772.144 877.777 777.518 883.321C791.847 901.801 804.385 925.21 804.385 934.45C804.982 927.058 805.579 918.433 807.371 909.809C879.615 965.25 944.694 945.538 1062.91 750.878C1141.13 622.131 1187.7 596.875 1213.37 600.571C1223.52 604.267 1233.07 612.275 1242.03 625.827C1244.42 629.523 1246.81 633.219 1248.6 636.915C1301.14 635.683 1325.62 667.1 1338.16 699.749C1338.16 699.749 1338.16 699.749 1338.16 700.365C1348.31 728.085 1349.5 756.422 1350.69 763.814C1350.69 765.046 1350.69 765.662 1351.29 765.662C1350.1 790.303 1347.11 832.192 1346.51 886.401C1346.51 911.041 1348.9 960.322 1347.11 988.659C1346.51 997.283 1345.92 1005.91 1345.32 1013.92C1344.72 1018.23 1344.72 1022.54 1344.13 1026.24C1343.53 1029.93 1343.53 1034.24 1342.93 1038.56C1342.34 1043.48 1341.74 1047.8 1341.74 1052.72C1353.68 1067.51 1370.99 1069.97 1385.32 1079.83C1388.91 1037.94 1378.16 1002.83 1373.98 955.394C1377.56 971.411 1382.34 986.811 1389.5 1002.83C1413.39 1055.8 1400.25 1094.61 1400.25 1094.61L1439.66 1097.08C1443.84 1085.37 1447.42 1063.81 1434.88 1035.48C1415.77 991.739 1414.58 971.411 1414.58 971.411C1414.58 971.411 1424.73 1007.14 1443.84 1031.16C1458.76 1050.88 1464.73 1077.36 1458.76 1098.31L1473.09 1099.54C1516.08 1033.01 1382.94 938.146 1422.94 798.311ZM935.738 851.904C890.362 885.785 852.15 879.009 828.865 868.536C829.462 868.536 830.059 867.92 830.059 867.92C844.388 866.688 858.718 863.608 872.45 858.064C938.127 834.04 999.026 771.822 1052.76 714.533C1007.39 772.438 963.8 830.96 935.738 851.904Z" fill="#473A53"/>
<path d="M1151.76 1021.47C1151.76 1021.47 1094.69 1053.55 1030.32 1053.01C965.961 1052.47 958.068 1007.33 957.461 982.861C957.461 982.861 965.961 1018.21 1004.82 1031.26C1043.07 1044.31 1151.76 1021.47 1151.76 1021.47Z" fill="#473A53"/>
<path d="M1335.13 1015.49C1335.13 1015.49 1349.09 1030.71 1367.92 1041.59C1380.67 1049.2 1397.67 1041.05 1397.67 1027.45C1397.67 1027.45 1362.45 1029.08 1335.13 1015.49Z" fill="#473A53"/>
<path d="M1173.01 876.278C1140.22 873.559 1057.64 867.578 1026.07 864.859L1001.78 863.227C981.744 862.14 965.957 877.366 962.314 894.767C961.1 900.205 961.1 909.45 961.1 914.888V937.183C961.1 950.778 960.492 964.916 965.957 977.967C975.672 1008.42 1006.64 1032.89 1043.07 1029.08C1046.71 1028.54 1069.18 1026.36 1073.43 1025.82L1122.61 1020.93C1138.4 1019.84 1152.97 1016.03 1166.94 1008.42C1186.37 998.088 1205.19 982.318 1203.98 960.022L1205.19 938.271C1206.4 911.081 1214.9 878.997 1173.01 876.278ZM1174.83 858.333C1203.37 860.508 1222.8 887.154 1220.98 911.625C1220.98 914.888 1219.76 935.552 1219.16 939.358C1219.16 943.708 1217.94 963.285 1217.33 967.091C1214.3 1004.07 1168.15 1030.17 1130.51 1035.07C1111.08 1037.24 1070.39 1042.13 1050.96 1044.31C1046.11 1044.85 1039.43 1045.4 1034.57 1045.94C1032.14 1045.94 1026.68 1045.4 1024.25 1045.4C972.636 1039.42 939.848 992.106 941.062 948.059C941.062 940.99 941.062 922.501 941.062 914.888C941.062 911.081 941.062 901.293 941.67 897.486C943.491 878.454 955.028 859.965 974.458 849.633C982.958 845.282 993.281 843.107 1003.6 843.651L1028.5 845.826C1058.86 849.089 1142.65 856.158 1174.83 858.333Z" fill="#473A53"/>
<path d="M1315.7 867.034C1329.06 865.402 1394.63 858.877 1406.78 857.789C1409.81 857.789 1417.71 856.702 1420.14 856.702C1446.25 853.439 1458.39 878.997 1460.82 898.03C1462.03 914.887 1460.82 931.201 1461.43 947.515C1461.43 958.934 1460.21 970.354 1457.18 981.23C1449.28 1010.59 1426.21 1041.59 1387.96 1031.8C1378.85 1030.17 1360.63 1028 1352.13 1026.36L1343.02 1024.73C1325.41 1022.01 1310.84 1011.14 1301.13 999.175C1282.91 980.142 1286.55 954.584 1284.73 931.745C1282.3 908.906 1282.91 873.559 1315.7 867.034ZM1318.13 882.804C1299.31 890.417 1304.16 915.975 1304.16 931.201L1305.38 963.829C1305.98 984.493 1324.2 1005.16 1346.06 1010.59C1351.52 1011.68 1366.7 1014.4 1372.78 1015.49L1390.38 1018.75C1434.1 1031.26 1451.1 976.88 1450.5 946.971C1448.67 921.957 1457.18 892.048 1437.14 871.928C1432.28 867.578 1427.42 866.49 1421.96 867.578C1418.92 868.121 1411.03 869.209 1408.6 869.753C1396.46 871.928 1330.88 881.172 1318.13 882.804Z" fill="#473A53"/>
<path d="M950.779 917.606C945.922 927.395 941.671 926.307 933.17 926.307L915.562 925.763C893.096 924.676 868.201 923.044 845.735 920.325C833.591 918.694 820.84 917.063 808.697 914.344C803.839 913.256 800.803 908.906 802.018 904.555C803.232 900.749 806.875 898.03 811.125 898.574L846.342 900.205L881.559 901.293C893.096 901.836 922.848 902.38 934.385 902.924C940.457 902.924 945.921 903.468 951.993 901.836C954.422 901.293 956.851 902.38 957.458 904.555C958.065 905.643 957.458 906.187 957.458 907.274L950.779 917.606Z" fill="#473A53"/>
<path d="M1209.44 906.187C1231.3 895.311 1288.98 880.085 1299.91 909.45C1304.77 917.063 1292.02 924.132 1286.55 916.519C1286.55 917.607 1283.52 916.519 1282.3 916.519C1259.23 914.888 1235.55 918.151 1212.48 919.782C1202.76 920.869 1200.94 909.45 1209.44 906.187Z" fill="#473A53"/>
<path d="M1576.06 1703.44H322.306C322.306 1703.44 396.173 1608.11 428.893 1499.42C451.697 1424.13 468.553 1380.11 532.505 1355.82C577.618 1338.82 704.531 1314.23 794.758 1306.33C831.443 1303.3 904.319 1299.96 967.279 1303C1014.87 1306.64 1113.03 1323.64 1150.71 1330.02C1207.22 1339.73 1329.67 1368.57 1383.71 1398.93C1405.03 1411.07 1455.59 1471.79 1488.31 1559.84C1525.99 1660.02 1576.06 1703.44 1576.06 1703.44Z" fill="#473A53"/>
<path d="M1587.46 1707.08C1221.1 1709.21 684.699 1713.76 322.8 1712.85C311.894 1713.15 303.962 1705.56 308.919 1699.49C356.511 1635.13 392.701 1566.52 415.01 1496.99C433.353 1442.65 444.755 1374.04 534.486 1345.5C578.608 1331.84 625.209 1322.73 672.305 1314.23C755.096 1299.35 842.844 1292.07 929.105 1293.58C942.49 1293.89 956.371 1294.19 970.252 1294.8C999.997 1297.53 1029.25 1302.08 1058 1306.64C1083.78 1310.59 1110.05 1315.14 1135.34 1319.69C1138.31 1320.6 1139.3 1324.25 1140.79 1326.07C1142.77 1328.19 1145.25 1327.89 1148.72 1326.98C1150.21 1326.68 1151.7 1326.07 1153.18 1326.37C1156.65 1326.68 1161.61 1327.89 1165.08 1328.5C1241.92 1343.68 1319.26 1361.59 1384.2 1391.64C1393.62 1395.9 1401.06 1401.66 1407.01 1407.74C1418.91 1419.27 1428.82 1431.11 1437.75 1443.26C1464.52 1479.38 1484.35 1517.33 1499.22 1555.89C1518.55 1604.16 1541.36 1652.74 1582.51 1695.85L1584.49 1697.67L1585.48 1698.58C1588.45 1700.1 1589.45 1704.65 1587.46 1707.08ZM1564.66 1699.79C1562.18 1701.62 1562.68 1705.56 1564.66 1707.08L1564.16 1706.47L1563.17 1705.26C1540.37 1683.4 1523.51 1659.11 1509.13 1635.13C1494.26 1610.54 1482.86 1584.43 1472.94 1558.93C1458.57 1521.28 1439.73 1484.24 1414.45 1449.02C1403.54 1434.15 1392.63 1419.27 1376.27 1406.82C1366.85 1401.06 1355.95 1396.2 1344.54 1391.64C1287.53 1369.18 1223.58 1352.78 1159.13 1340.03C1156.65 1339.43 1150.71 1338.52 1147.73 1337.91C1144.76 1337.3 1144.76 1332.14 1142.77 1330.93C1138.31 1328.5 1133.35 1335.18 1128.89 1334.57C1103.61 1330.32 1077.33 1326.07 1051.56 1322.43C1020.82 1318.17 990.578 1313.32 959.841 1311.8C824.005 1306.33 686.682 1323.94 561.753 1357.04C501.271 1372.21 478.466 1406.52 464.09 1443.26C451.2 1474.22 443.764 1507.92 431.866 1539.19C409.061 1597.18 377.333 1653.04 337.177 1707.69L323.296 1694.33C675.28 1693.72 1207.72 1697.06 1564.66 1699.79Z" fill="#473A53"/>
<path d="M1078.79 959.632C1064.6 959.153 1053.96 949.571 1055.14 938.073L1055.73 924.658C1056.32 913.16 1068.15 904.537 1082.34 905.495C1096.52 905.974 1107.17 915.556 1105.98 927.054L1105.39 940.468C1104.8 951.487 1092.98 960.111 1078.79 959.632Z" fill="#473A53"/>
<path d="M1327.67 966.818C1314.67 966.339 1304.62 957.237 1305.21 946.697L1305.8 934.24C1306.39 923.701 1317.62 915.556 1330.63 916.035C1343.63 916.514 1353.68 925.617 1353.09 936.157L1352.5 948.613C1351.91 959.153 1340.68 967.297 1327.67 966.818Z" fill="#473A53"/>
<path d="M1132 933.761C1112.49 923.221 1091.2 916.035 1067.56 919.868C1059.87 920.826 1052.19 922.742 1047.46 927.054C1045.68 928.97 1041.55 928.491 1041.55 925.617C1042.14 916.035 1052.19 909.807 1061.65 905.974C1079.97 898.309 1105.39 899.746 1121.95 909.807C1127.86 912.682 1147.96 930.408 1137.32 934.24C1134.95 935.198 1133.77 934.719 1132 933.761Z" fill="#473A53"/>
<path d="M1301.07 936.157C1301.07 916.035 1331.81 908.849 1350.73 916.035C1361.37 919.868 1369.06 927.533 1372.01 936.636C1373.2 939.51 1367.87 941.906 1365.51 939.51C1355.46 929.929 1338.32 925.138 1324.72 930.887C1320.58 932.803 1319.99 934.24 1318.81 936.157C1318.81 945.738 1301.66 945.259 1301.07 936.157Z" fill="#473A53"/>
<path d="M1160.37 854.712C1172.79 858.066 1185.2 848.963 1182.84 837.944C1181.65 832.195 1178.7 826.446 1172.79 822.134C1155.05 809.199 1081.75 797.701 1037.41 814.469C998.39 829.8 1103.62 839.381 1160.37 854.712Z" fill="#473A53"/>
<path d="M1337.14 862.378C1327.09 865.252 1316.44 856.629 1318.22 846.568C1318.81 841.298 1321.17 836.028 1325.9 832.195C1340.09 820.697 1388.57 811.595 1419.31 829.321C1445.91 844.172 1383.25 848.484 1337.14 862.378Z" fill="#473A53"/>
<path d="M1194.97 1175.72C1185.5 1184.49 1172.36 1184.84 1161.06 1181.68C1157.39 1180.63 1153.11 1179.93 1150.97 1175.37C1148.83 1171.51 1150.97 1166.61 1154.94 1165.9C1158.92 1164.85 1161.36 1166.96 1164.72 1168.01C1173.58 1171.51 1183.36 1173.62 1192.53 1170.11C1194.97 1169.41 1197.42 1173.62 1194.97 1175.72Z" fill="#473A53"/>
<path d="M1161.36 1153.28C1167.78 1166.25 1158.61 1181.68 1147.61 1186.59C1145.17 1187.99 1133.56 1190.8 1133.86 1185.54C1133.86 1184.84 1134.47 1184.14 1135.08 1183.79C1146.08 1178.18 1154.03 1166.6 1155.86 1153.28C1156.17 1150.47 1159.53 1149.77 1160.75 1152.23L1161.36 1153.28Z" fill="#473A53"/>
</svg>
