<svg width="70" height="70" viewBox="0 0 1700 1358" fill="none" xmlns="http://www.w3.org/2000/svg">
  <path d="M1454.67 3.33334C1452.8 4.80001 1450.8 6.00001 1450.13 6.00001C1449.47 6.00001 1447.2 8.00001 1445.2 10.2667C1442 14.1333 1441.2 14.5333 1438.8 13.0667C1436.4 11.6 1435.6 12 1431.47 16.8C1428.8 20 1425.87 22.1333 1424.4 22C1418.53 21.3333 1416.13 22.1333 1415.73 24.8C1415.33 27.6 1407.73 31.3333 1402.13 31.3333C1399.87 31.3333 1399.73 32.1333 1400.4 38.6667C1400.8 42.6667 1402.13 46.9333 1403.2 48.1333C1404.4 49.2 1405.33 51.0667 1405.33 52.1333C1405.33 54.2667 1412.4 76.9333 1419.33 96.6667C1421.73 103.6 1424.13 111.067 1424.53 113.2C1425.07 115.2 1426.4 117.867 1427.33 118.933C1428.4 120 1429.33 122.133 1429.33 123.867C1429.33 125.467 1429.87 127.333 1430.4 128C1431.07 128.8 1435.33 141.067 1440 155.333C1444.67 169.6 1448.8 181.6 1449.33 182C1450 182.667 1458 207.2 1463.47 226C1464.67 230 1466.4 235.733 1467.47 238.667C1468.4 241.6 1469.47 245.6 1469.87 247.6C1470.27 249.6 1471.47 252 1472.4 252.933C1473.47 253.867 1474.53 256.267 1474.93 258C1475.73 261.6 1482.13 280.267 1484.8 286.667C1485.73 288.8 1488.27 296.4 1490.53 303.333C1492.93 310.267 1495.2 316.267 1495.73 316.667C1496.4 317.067 1498.8 322.667 1501.2 329.333C1506.93 345.2 1509.33 351.467 1510.8 354.267C1511.47 355.6 1512 357.333 1512 358.267C1512 360.667 1519.07 377.2 1520.27 377.733C1520.93 378 1521.33 379.2 1521.33 380.533C1521.33 381.733 1521.87 383.333 1522.4 384.133C1523.07 384.8 1524.67 388.933 1526 393.333C1527.47 397.733 1529.33 402.533 1530.27 404C1531.2 405.467 1532 407.6 1532 408.667C1532 409.867 1533.47 414 1535.33 417.733C1537.2 421.6 1538.67 425.467 1538.67 426.533C1538.67 427.6 1539.33 428.933 1540 429.333C1540.8 429.733 1541.33 431.333 1541.33 432.667C1541.33 434 1542.13 436 1543.2 437.067C1546 439.867 1553.33 455.733 1553.33 459.067C1553.33 463.467 1555.87 468.8 1560.8 474.8C1563.33 477.867 1565.33 480.8 1565.33 481.333C1565.33 481.867 1566.8 483.467 1568.8 484.933C1570.67 486.4 1574.4 490.667 1577.2 494.533C1584.4 504 1588.27 508.133 1591.2 509.2C1594.13 510.133 1602.67 507.733 1602.67 505.867C1602.67 505.2 1603.33 504.667 1604.13 504.667C1604.93 504.667 1607.33 503.2 1609.6 501.333C1611.73 499.467 1614.53 498 1615.73 498C1616.8 498 1619.07 496.8 1620.53 495.467C1624.8 491.6 1635.47 486 1638.67 486C1645.07 486 1651.47 473.333 1648.13 466.933C1644.8 460.4 1641.33 454.8 1638.8 451.867C1637.47 450.267 1635.87 447.733 1635.33 446.133C1634.93 444.533 1632.27 439.6 1629.47 434.933C1623.87 425.867 1617.87 413.333 1616.53 408C1616.13 406.133 1615.2 404.667 1614.67 404.667C1614.13 404.667 1612.8 402.133 1611.6 398.933C1609.47 392.933 1605.87 383.2 1601.33 371.333C1599.73 367.333 1597.07 359.867 1595.2 354.8C1593.47 349.6 1591.47 345.2 1590.8 344.8C1589.6 343.867 1581.07 321.333 1573.2 298C1570.13 288.8 1567.2 281.067 1566.67 280.667C1566.13 280.267 1564.8 277.333 1563.6 274C1562.53 270.667 1560.93 266.533 1560.27 264.667C1559.6 262.8 1556.93 255.067 1554.67 247.333C1552.27 239.6 1549.47 231.2 1548.53 228.667C1547.6 226.133 1546.4 222.533 1545.87 220.667C1545.33 218.8 1544.53 217.067 1544 216.667C1543.47 216.267 1540.27 207.6 1536.8 197.333C1533.47 187.067 1530 176.8 1529.2 174.667C1528.4 172.4 1526.27 165.6 1524.4 159.333C1522.53 153.067 1520.53 147.733 1519.87 147.333C1518.67 146.533 1518.4 145.467 1506.8 109.2C1502.27 95.0667 1498.27 81.7333 1497.87 79.4667C1497.33 77.2 1496.53 75.3333 1495.87 75.3333C1495.33 75.3333 1493.2 70.4 1491.33 64.4C1489.47 58.4 1486.13 49.4667 1484 44.5333C1481.73 39.6 1480 34.9333 1480 34C1480 32.1333 1474.67 20.2667 1473.33 19.3333C1472.8 18.9333 1470.8 15.6 1468.67 12C1461.73 -0.133327 1460.27 -1.06666 1454.67 3.33334Z" fill="#CE4646"/>
  <path d="M1268.53 172.4C1267.73 172.933 1266.8 174.4 1266.27 175.733C1265.73 176.933 1264.27 178.4 1263.07 178.933C1261.73 179.467 1259.73 180.933 1258.53 182.267C1257.33 183.6 1255.6 184.667 1254.8 184.667C1252.67 184.667 1229.33 206.133 1229.33 208.133C1229.33 208.933 1227.87 210.933 1226.13 212.533C1222.4 216.133 1222.67 217.467 1228.93 226.4C1231.33 229.867 1233.33 233.067 1233.33 233.6C1233.33 234 1235.33 236.267 1237.73 238.667C1240 241.067 1243.87 246.533 1246 250.8C1251.87 262.133 1258.4 273.6 1260.4 275.6C1262 277.2 1272.4 298 1280.67 316C1282.67 320.4 1284.8 324.267 1285.47 324.667C1286.53 325.333 1291.87 340.133 1297.6 358C1299.07 362.8 1301.47 370.133 1302.8 374.4C1304.27 378.533 1305.33 383.2 1305.33 384.533C1305.33 386 1306.13 388 1307.07 388.933C1308.93 390.8 1318.67 429.6 1321.2 444.933C1322 450 1323.33 457.733 1324 462.267C1331.6 508.933 1332.4 565.067 1325.87 608.267C1322.4 631.867 1311.87 668.933 1307.47 673.333C1306.4 674.4 1304.8 677.467 1303.87 680.267C1303.07 682.933 1300.27 688.533 1297.73 692.533C1295.2 696.667 1292.13 701.6 1290.93 703.6C1289.73 705.6 1286.27 708.267 1283.33 709.467C1280.4 710.667 1276.53 712.267 1274.8 713.2C1272.8 714.133 1264.8 714.533 1254.8 714.533C1240.93 714.267 1236 713.6 1226 710.667C1219.47 708.8 1213.87 706.667 1213.6 705.867C1213.33 705.2 1212.53 704.667 1211.73 704.667C1207.6 704.667 1175.73 687.2 1167.07 680.133C1165.73 679.067 1159.87 674.4 1154 669.867C1142 660.533 1115.73 634.267 1106.67 622.533C1103.33 618.267 1099.47 613.6 1097.87 612C1094.13 608 1079.2 584.4 1076.8 578.667C1075.73 576.133 1074.27 574 1073.6 574C1072.4 574 1066.27 562 1055.6 539.333C1052.67 533.067 1050 527.733 1049.47 527.333C1047.47 525.733 1033.47 491.333 1029.33 478C1028.27 474.667 1027.07 471.733 1026.67 471.333C1025.47 470.4 1022.93 463.467 1021.47 457.333C1020.8 454.4 1019.2 448.667 1018 444.667C1012.67 427.067 1008 402.8 1005.2 378.667C1004.27 371.333 1003.07 364.933 1002.4 364.533C1000.53 363.333 1000.4 315.467 1002.27 314.267C1003.73 313.333 1006.53 303.733 1006.67 299.067C1006.67 297.867 1004.27 294.267 1001.33 291.2C998.4 288 996 284.667 996 283.6C996 282.667 993.867 279.067 991.333 275.733C988.8 272.4 986.667 268.933 986.667 268C986.667 267.2 984.4 264.267 981.467 261.6L976.4 256.933L974.8 260.133C974 262 973.333 264.267 973.333 265.333C973.333 266.4 971.867 267.6 970.133 268.133C968 268.667 966.267 270.667 964.933 274.133C963.067 278.933 962.4 279.333 957.867 279.333C950.8 279.333 944.4 282 942.8 285.6C942 287.333 940.533 288.667 939.467 288.667C938.4 288.667 936.8 290.8 935.867 293.333C934 298.4 931.2 299.333 928.533 295.6C926.933 293.467 926.533 293.467 923.067 295.333C916.533 298.933 915.467 304.8 915.467 336C915.467 357.733 916.133 368.8 918.4 385.333C922 411.467 929.467 446.533 932 448.667C933.467 450 936 456.8 936 459.333C936 462 938.933 471.333 941.867 478.667C942.8 480.8 944.667 486.267 946.133 490.667C947.467 495.067 949.333 500.133 950.267 502C951.2 503.867 952 506.133 952 507.067C952 508.8 954.8 514.267 956.267 515.333C957.333 516.133 962.667 528.4 962.667 530C962.667 530.533 965.733 537.467 969.333 545.2C973.067 552.933 976 560 976 560.667C976 561.333 976.8 562.4 977.867 562.933C978.933 563.467 982.533 569.6 986 576.533C992.667 589.867 1001.07 603.733 1002.93 604.4C1003.47 604.667 1004 605.467 1004 606.267C1004 607.067 1007.6 612.933 1012 619.467C1016.4 625.867 1020 631.733 1020 632.267C1020 632.933 1022.8 636.4 1026.13 640C1029.47 643.733 1035.47 650.8 1039.47 656C1043.33 661.067 1050 668.667 1054 672.667C1058 676.667 1061.33 680.533 1061.33 681.2C1061.33 682.933 1072.13 694.533 1074.8 695.6C1076 696 1078.4 698.267 1080.13 700.533C1081.87 702.8 1086 707.2 1089.2 710.4C1092.4 713.467 1100.4 721.067 1106.8 727.333C1113.33 733.6 1121.33 740.8 1124.8 743.333C1128.27 745.867 1133.87 750.533 1137.2 753.6C1140.53 756.8 1143.73 759.333 1144.27 759.333C1144.93 759.333 1148.13 761.333 1151.6 763.867C1155.2 766.267 1163.07 770.933 1169.33 774.133C1175.6 777.333 1181.47 780.667 1182.4 781.6C1183.33 782.533 1186.67 784 1189.73 784.8C1192.8 785.6 1197.47 787.333 1200 788.667C1209.33 793.333 1232.4 794.667 1246 791.333C1248.93 790.667 1254 790 1257.33 790C1267.6 789.733 1277.87 786.933 1281.47 783.333C1283.2 781.467 1286.13 779.2 1288 778.133C1294.67 774.267 1303.6 769.6 1313.6 764.4C1319.2 761.6 1325.2 757.733 1326.93 756C1328.67 754.133 1330.67 752.667 1331.6 752.667C1334 752.667 1347.87 741.733 1356.93 732.8C1361.47 728.267 1368 720.267 1371.6 714.933C1375.07 709.6 1378.27 705.067 1378.8 704.667C1382.53 701.867 1398.67 664.133 1400.67 653.6C1401.2 650.8 1402 648.667 1402.53 648.667C1406.13 648.667 1414 602.267 1416 570C1417.33 547.067 1416.8 510.267 1414.8 495.333C1414.13 490.533 1414 486.133 1414.27 485.6C1414.67 485.067 1414 480.8 1412.93 476.267C1411.73 471.733 1410.53 464.4 1410 460C1409.6 455.6 1408.4 448.667 1407.33 444.667C1406.4 440.667 1405.2 434.133 1404.67 430.267C1404.13 426.533 1403.2 423.333 1402.67 423.333C1402 423.333 1401.2 420.8 1400.67 417.6C1398.67 405.333 1380.67 343.6 1378.53 342C1378 341.6 1376.8 338.667 1375.6 335.333C1374.53 332 1372.8 327.467 1372 325.333C1371.07 323.067 1369.73 319.867 1369.07 318C1368.4 316.133 1366.93 312.933 1365.87 310.933C1364.8 308.8 1364 306.4 1364 305.6C1364 303.2 1356.93 289.467 1355.07 288.267C1354.13 287.733 1353.33 286.133 1353.33 284.933C1353.33 283.733 1350.53 277.867 1347.2 272C1343.73 266.133 1339.2 258 1337.07 254C1334.8 250 1332.53 246.4 1332 246C1331.33 245.6 1328.67 241.2 1326.13 236.267C1323.47 231.333 1319.87 224.933 1318.27 222.267C1316.53 219.6 1314.13 214.8 1312.93 211.6C1311.6 208.267 1307.2 202.533 1302.27 197.6C1297.6 193.067 1292.13 187.067 1290.13 184.267C1288 181.6 1285.6 179.333 1284.8 179.333C1283.87 179.333 1281.47 177.467 1279.33 175.333C1275.6 171.467 1271.47 170.267 1268.53 172.4Z" fill="#CE4646"/>
  <path d="M809.333 327.467C804.533 329.733 800.4 331.867 800 332.4C799.6 332.933 797.2 334.4 794.667 335.467C792.133 336.667 785.467 339.733 780 342.4C774.533 344.933 764.933 349.333 758.667 352.133C752.4 354.933 746.8 358 746.267 358.933C745.733 359.867 744.267 360.667 743.2 360.667C742.133 360.667 739.067 362.133 736.267 364C733.467 365.867 727.467 368.8 722.933 370.533C718.4 372.267 712.933 375.067 710.8 376.533C708.667 378.133 706 379.333 704.8 379.333C703.6 379.333 701.333 380.8 699.733 382.667C698.133 384.533 696 386 694.933 386C693.867 386 691.467 386.8 689.6 387.867C686 389.867 680.667 392.267 666 398.667C661.6 400.533 656.933 402.667 655.733 403.333C654.4 404.133 652.133 404.667 650.667 404.667C649.333 404.667 647.467 405.867 646.667 407.333C645.867 408.8 644.533 410 643.6 410C642.667 410 636.267 412.8 629.333 416.267C617.467 422 612.4 423.867 603.733 425.6C601.867 426 598.933 427.467 597.467 428.8C596 430.133 594.133 431.333 593.333 431.333C592.667 431.333 592 431.867 592 432.667C592 433.333 590.933 434 589.6 434C587.333 434 557.733 443.6 548.4 447.467C544.533 449.067 543.867 448.933 540.933 446.267C536.667 442.267 534.667 442.533 534.667 447.333C534.667 450.4 533.733 451.733 530.667 453.333C528.533 454.4 526.133 455.333 525.2 455.333C524.4 455.333 522.8 456.4 521.867 457.6C520.133 459.867 519.867 459.867 518.133 457.6C516.267 455.2 513.333 454.533 513.333 456.533C513.333 457.333 514 458.267 514.667 458.667C518 460.8 513.2 468.667 508.533 468.667C507.467 468.667 506.267 470.267 505.867 472.133C505.2 474.533 504.533 475.067 503.6 474.133C502.667 473.2 501.6 473.467 500.4 475.067C498.933 476.667 498.267 476.933 497.867 475.6C496.8 473.333 494.667 474.933 494.667 478.133C494.667 479.733 493.733 480.667 492.133 480.667C490.667 480.667 489.2 481.467 488.8 482.267C488.133 483.6 487.867 483.6 487.2 482.267C486.8 481.467 485.6 480.667 484.533 480.667C482 480.667 482 490.533 484.667 493.2C486.533 495.067 494.133 514 503.2 539.6C505.333 545.333 507.467 550 508 550C508.533 550 510.267 553.733 511.733 558.267C514.8 567.867 523.333 592.4 525.867 599.333C526.933 601.867 528.533 606.533 529.467 609.6C530.267 612.8 531.467 615.333 532 615.333C532.533 615.333 536.4 626 540.667 638.933C544.8 652 549.067 664.8 550 667.333C550.933 669.867 552.133 674.533 552.667 677.733C553.2 680.8 554.267 684.133 555.2 685.067C556.8 686.667 559.467 694.667 563.467 709.333C564.667 713.733 566.4 720 567.333 723.333C568.267 726.667 571.067 736.267 573.467 744.667C575.733 753.067 578.133 760.267 578.533 760.667C579.067 761.067 580.533 765.2 581.867 770C583.067 774.8 584.8 780.4 585.467 782.667C588.4 791.067 590.933 801.467 591.067 805.6C591.2 807.867 591.733 810.267 592.4 810.8C594 812.533 593.467 817.6 591.333 819.333C588.267 821.867 588.933 822.933 594 824.667C598.533 826.133 599.067 826.933 600.667 834.933C601.2 837.333 602.133 839.333 602.8 839.333C603.467 839.333 604.267 840.933 604.8 842.933C605.2 845.067 607.6 852.933 610.133 860.667C612.533 868.4 616.4 880.933 618.667 888.667C625.467 912.133 625.867 913.333 626.8 914C627.333 914.4 630.267 923.6 633.333 934.667C636.533 945.6 641.067 961.467 643.467 969.733C646 978 648 986 648 987.467C648 988.8 648.533 990 649.2 990C650 990 651.6 993.333 652.933 997.467C654.667 1003.33 657.067 1006.67 663.733 1013.47C668.533 1018.13 673.067 1022 673.867 1022C674.667 1022 678.933 1026 683.467 1030.93C690.667 1038.93 691.867 1039.73 693.867 1038.13C695.067 1037.2 698 1036 700.4 1035.47C703.6 1034.8 705.2 1033.47 707.067 1029.73C708.4 1027.07 710.8 1024.4 712.4 1023.87C714 1023.47 716.267 1022.27 717.333 1021.33C718.4 1020.53 721.467 1018.93 724 1018C726.533 1017.07 730.533 1014.93 732.667 1013.33C734.933 1011.73 737.733 1010.13 739.067 1009.6C740.267 1009.07 741.733 1006.93 742.133 1004.67C742.667 1002.53 743.467 1000.67 744.133 1000.67C746.133 1000.67 745.467 996.933 743.2 996.133C740 994.933 741.467 989.733 745.333 988.533C747.2 988 755.867 985.867 764.667 983.867C773.467 981.867 780.933 979.733 781.333 979.2C781.733 978.667 785.067 977.467 788.667 976.533C792.4 975.733 799.2 974 804 972.667C811.2 970.667 831.333 965.067 863.067 956.267C865.733 955.6 868 954.533 868 954C868 953.467 869.333 952.667 871.067 952.267C874.133 951.6 878.4 950.4 904.667 942.933C934 934.533 944.667 931.2 945.333 930.133C945.733 929.467 950.8 927.467 956.667 925.6C978.667 918.667 1010.8 906.533 1012 904.667C1012.4 904.133 1017.73 901.467 1023.87 898.933C1037.73 892.8 1047.33 883.733 1046.13 877.733C1045.6 874.8 1046.13 873.6 1048.67 871.867C1050.4 870.8 1052.27 868.133 1052.67 866C1053.6 861.6 1056.93 854.8 1060.93 849.2C1063.33 845.867 1066.8 833.067 1066.67 828.133C1066.53 823.867 1062.4 821.333 1054.27 820.533C1049.73 820 1042.4 818.267 1038 816.667C1027.2 812.8 1017.07 813.467 1010.53 818.4C1007.87 820.4 1004.93 822 1003.87 822C1002.8 822 1000.53 823.2 998.667 824.667C996.8 826.133 994.667 827.333 993.733 827.333C992.8 827.333 991.6 828.133 991.067 828.933C990 830.667 980.933 835.333 978.667 835.333C978 835.333 973.733 837.067 969.067 839.2C964.4 841.467 956 844.667 950.533 846.533C932.267 852.667 927.333 854.4 926.667 855.467C926 856.4 922.667 857.6 896.667 865.867C870.4 874.267 863.2 876.4 859.067 877.333C856.667 877.867 854.667 878.667 854.667 879.2C854.667 879.733 849.467 881.733 843.067 883.733C829.733 887.733 793.867 898.267 782.4 901.6C778.133 902.8 774.667 904.133 774.667 904.667C774.667 905.2 770.267 906.533 765.067 907.867C759.733 909.067 748.8 911.867 740.667 914C722.8 918.933 718.533 919.733 716.4 918.4C715.467 917.733 712.4 909.2 709.333 899.333C697.867 861.2 696.8 858 695.733 858C695.2 858 694.667 856.267 694.667 854.267C694.667 852.267 694.133 850 693.6 849.333C692.933 848.533 691.067 843.467 689.467 838C687.733 832.533 684.8 822.533 682.667 816C680.667 809.333 678.533 801.733 678 798.933L677.2 793.867L690.267 787.733C697.467 784.4 703.6 781.067 704 780.533C704.667 779.6 730.267 767.2 741.333 762.4C750.133 758.667 755.333 756 756.667 754.533C757.467 753.6 761.333 751.733 765.333 750.267C769.333 748.8 778.667 744.8 786 741.333C793.333 738 801.467 734.267 804 733.067C806.533 731.867 808.933 730.533 809.333 730C809.733 729.467 821.067 724.133 834.533 718.133C847.867 712.133 859.867 706.4 860.933 705.333C862 704.267 863.6 703.333 864.667 703.333C866.133 703.333 879.067 697.467 888.267 692.667C892.267 690.4 905.867 686 908.4 686C910.8 686 916.4 682.8 919.733 679.733C920.667 678.8 922.133 678 922.933 678C923.6 678 927.6 677.067 931.6 675.867C936.933 674.267 939.2 672.933 940 670.667C940.667 668.933 943.067 666.533 945.333 665.333C949.467 663.2 950.4 661.467 948 660C946.133 658.8 946.4 655.333 948.667 650.8C949.733 648.8 950.667 646 950.667 644.8C950.667 643.6 951.6 641.467 952.667 640.133C954 638.4 954.4 635.867 953.867 632.8C953.333 629.067 953.733 627.2 955.867 624.8C959.067 621.067 959.467 616.4 956.8 613.6C955.733 612.533 947.867 610.8 937.733 609.333C928.4 608.133 920.267 606.533 919.867 605.867C919.467 605.2 914 604.533 907.733 604.4C898.533 604.267 895.867 604.667 894 606.4C892.8 607.6 890.267 609.067 888.267 609.467C883.2 610.533 855.867 621.6 846.533 626.133C842.267 628.267 838.267 630 837.6 630C836.8 630 836 630.933 835.467 632C835.067 633.067 833.6 634 832.133 634C830.667 634 829.2 634.533 828.667 635.2C828.267 635.867 826 636.933 823.733 637.333C821.333 637.867 818.667 639.2 817.6 640.133C816.667 641.2 814.667 642 813.333 642C811.867 642 807.867 643.733 804.4 645.733C800.933 647.867 795.2 650.667 791.733 652C788.133 653.333 785.333 654.8 785.333 655.467C785.333 656 784 656.933 782.4 657.467C780.667 658 775.6 660.133 771.067 662.133C766.667 664.267 762.533 666 762.133 666C761.467 666 754.8 668.933 737.733 676.933C734.533 678.4 732 680.133 732 680.667C732 681.333 730.667 682.267 729.067 682.8C722.133 684.933 681.2 704.4 680 706.133C679.467 706.933 671.6 710.667 658.933 716.133C654.533 718.133 654.533 718.133 652.533 713.333C651.467 710.8 650 708.667 649.333 708.667C648.533 708.667 648 707.333 648 705.733C648 704.133 646.8 699.2 645.467 694.8C644 690.267 641.867 683.333 640.8 679.333C639.6 675.333 636.533 664.8 633.867 656C631.2 647.2 628.8 638.933 628.4 637.6C628 636.4 627.2 635.333 626.667 635.333C626.133 635.333 625.333 633.733 624.933 631.6C624.533 629.6 620.8 618.4 616.8 606.667C612.667 594.933 608 581.733 606.533 577.333C604.933 572.933 603.2 569.067 602.667 568.667C602.133 568.267 600.4 564.4 598.8 560C597.333 555.6 593.6 545.467 590.667 537.467C587.6 529.6 585.467 522.4 585.733 521.467C586.133 520.667 589.867 518.8 594.133 517.467C605.467 514 624.533 506.933 625.333 505.867C625.733 505.467 627.467 504.533 629.333 504C631.2 503.467 635.6 501.6 639.2 499.867C642.933 498.133 646.8 496.667 648 496.667C649.2 496.667 650.667 496.133 651.467 495.6C652.133 494.933 658.933 491.733 666.667 488.533C674.4 485.333 680.933 482.4 681.333 481.867C682.267 480.667 693.067 475.333 694.533 475.333C695.333 475.333 701.467 472.667 708.267 469.6C715.067 466.4 723.867 462.4 727.733 460.667C731.467 458.933 734.667 457.2 734.667 456.8C734.667 456.4 737.2 454.8 740.4 453.467C743.467 452 750.667 448.533 756.4 445.733C762.133 442.933 767.6 440.667 768.4 440.667C769.333 440.667 773.067 439.067 776.667 437.333C780.4 435.467 784.4 434 785.733 434C786.933 434 788 433.467 788 432.8C788 432.133 790 431.2 792.533 430.8C795.067 430.267 798.533 428.8 800.133 427.467C801.867 426.133 805.6 424.4 808.267 423.467C810.933 422.533 815.467 420.133 818.4 418C824.933 413.2 834.4 408.667 837.6 408.667C838.933 408.667 840 408.133 840 407.333C840 405.867 849.6 400.667 852.533 400.667C853.6 400.667 855.733 399.067 857.2 396.933C858.667 394.933 860.933 392.267 862.133 391.067C863.6 389.6 864.533 386.133 864.8 382.4C865.333 370.133 869.333 349.6 871.467 347.2C874.8 343.6 872.933 335.6 868.667 334.533C866.8 334.133 865.333 333.2 865.333 332.667C865.333 332.133 862.8 331.333 859.733 330.933C853.467 330.267 823.2 324.933 820 324C818.933 323.6 814.133 325.2 809.333 327.467Z" fill="#CE4646"/>
  <path d="M424.933 503.867C421.6 507.067 417.867 509.333 410.667 512.533C404.4 515.467 394.133 522 388 526.933C386 528.667 383.867 530 383.467 530C382.933 530 381.333 531.2 379.733 532.533C376.667 535.467 376.533 534.133 381.867 560.667C388.667 595.467 389.733 600 390.933 600.8C391.733 601.333 392.8 604.533 393.467 608.133C394.133 611.733 395.6 617.6 396.533 621.333C399.333 630.933 411.867 680.533 412.933 686C413.333 688.533 414.267 691.067 414.933 691.467C415.867 692.133 429.333 741.733 432.133 755.067C432.667 758.133 433.867 761.867 434.667 763.2C435.333 764.667 436 767.067 436 768.667C436 770.267 436.933 772.4 438 773.467C439.067 774.667 440 776.533 440 777.867C440 779.2 441.6 785.2 443.467 791.467C445.333 797.6 448 807.2 449.467 812.667C452.133 822.667 454 829.6 457.867 843.2C458.933 847.2 460.4 850.8 461.067 851.2C461.733 851.6 462.8 854.133 463.333 856.667C463.867 859.2 465.6 865.467 467.333 870.667C468.933 875.733 471.867 886 473.867 893.333C478.8 911.2 484.4 927.867 485.6 928.4C486.267 928.667 486.667 929.733 486.667 930.8C486.667 932.667 488.4 938.667 497.333 967.333C503.333 986.533 502.667 988.533 493.067 979.2C489.867 976.267 486.4 973.333 485.067 972.933C482.933 972 470.8 961.867 464.267 955.6C462.667 954 460.8 952.667 460.267 952.667C459.733 952.667 454.533 948.4 448.667 943.333C442.8 938.267 435.6 932 432.667 929.6C429.733 927.067 424.667 922.667 421.333 919.867C418 916.933 413.067 912.933 410.267 910.8C407.467 908.8 402.4 904.4 399.067 901.2C395.867 898 392.533 895.333 391.867 895.333C390.667 895.333 388.533 893.6 376 881.867C372.667 878.8 368.533 875.333 366.667 874.267C364.8 873.067 359.067 868.667 353.867 864.4C348.667 860.133 343.733 856.667 342.933 856.667C342 856.667 341.333 856.133 341.333 855.467C341.333 854.133 327.467 842.933 317.333 836C314 833.733 308.4 829.067 304.667 825.6C301.067 822.133 297.333 819.333 296.667 819.333C295.333 819.333 285.467 811.6 278.133 804.933C276 802.933 273.2 800.8 271.867 800C268.667 798.133 248.933 783.2 247.333 781.333C245.733 779.6 232.4 769.467 224.667 764.267C221.733 762.267 215.733 757.333 211.333 753.333C206.933 749.333 202.8 746 202.267 746C200.933 746 191.733 739.067 182.4 730.933C178.533 727.6 170.8 720.933 165.333 716.267C159.867 711.6 150.533 703.2 144.667 697.467C138.8 691.867 132.667 686.667 131.067 686C129.467 685.333 126.667 682.533 124.933 679.733C123.067 676.933 118.133 671.467 113.867 667.733C101.867 657.067 99.8666 655.067 93.3333 647.733C89.2 643.067 85.8666 640.667 82.9333 640C78.6666 639.067 78.5333 639.2 79.8666 641.867C80.8 643.467 82.9333 645.6 84.6666 646.8C86.9333 648.267 88 650.267 88 652.8C88 657.467 86 657.733 82.6666 653.6C80.5333 651.2 79.7333 650.933 77.6 652.267C75.4666 653.6 74.4 652.8 69.3333 646.533C63.8666 639.6 58.8 635.333 56.1333 635.333C55.3333 635.333 52.6666 637.067 50.2666 639.333C47.7333 641.467 44.6666 643.333 43.3333 643.333C40 643.333 31.6 647.6 29.6 650.267C28.5333 651.6 26.1333 652.667 23.8666 652.667C21.3333 652.667 20 653.333 20 654.667C20 655.733 18.1333 656.933 15.3333 657.467C12.6666 657.867 9.99997 659.333 9.33331 660.667C8.66664 662 6.26664 663.733 3.99997 664.4C-1.33336 666.267 -1.20003 669.867 4.39997 682.267C6.93331 687.6 9.99997 694.533 11.3333 697.6C12.6666 700.8 14.2666 703.333 14.9333 703.333C15.4666 703.333 16 704 16 704.8C16 705.6 16.8 708.133 17.8666 710.4C18.9333 712.8 21.3333 718.8 23.2 724C25.2 729.067 27.6 735.067 28.5333 737.333C29.6 739.467 30.8 742.533 31.0666 744C32.5333 749.333 36.2666 758.667 37.2 759.333C38.5333 760.133 41.8666 769.333 50.6666 795.333C59.2 820.667 60.4 823.733 62.2666 825.6C63.0666 826.533 64.1333 829.2 64.6666 831.6C65.0666 834 66.4 838.4 67.6 841.333C68.6666 844.267 70.1333 847.867 70.6666 849.333C72.4 854 82.5333 886.533 83.4666 890.267C83.8666 892.4 84.8 894 85.4666 894C86 894 87.2 896.533 88.1333 899.6C88.9333 902.8 90.9333 909.867 92.6666 915.333C100.8 940.933 104 952.133 104 954.267C104 956.667 106.667 963.467 108 964.667C108.533 965.067 109.867 968.933 111.067 973.333C112.4 977.733 114 983.067 114.533 985.333C115.2 987.467 117.067 994.133 118.667 1000C120.267 1005.87 123.067 1014.53 124.8 1019.33C126.533 1024.13 128.4 1030.53 129.067 1033.6C129.867 1036.67 131.333 1040.13 132.533 1041.33C133.733 1042.53 134.667 1044.4 134.667 1045.47C134.667 1046.67 135.6 1050.67 136.667 1054.4C137.867 1058.27 139.6 1064.27 140.533 1068C142.667 1075.6 147.733 1093.07 149.333 1098C149.867 1099.87 151.467 1105.07 152.8 1109.6C154.267 1114.27 155.733 1118 156.133 1118C156.533 1118 157.733 1120.53 158.533 1123.6C160.4 1129.73 163.2 1137.47 166.133 1144.27C167.2 1146.53 168 1149.33 168 1150.53C168 1155.2 178.8 1169.73 192 1183.07C196.8 1188 199.067 1189.2 203.067 1189.47C207.333 1189.73 208.4 1189.2 209.333 1186.67C210.933 1182.53 213.2 1181.33 214.133 1184C214.8 1185.6 216 1185.87 219.2 1185.07C221.467 1184.53 226 1184 229.333 1183.87C241.067 1183.33 247.867 1180.8 253.733 1175.07C258.133 1170.67 258.4 1165.47 254.8 1157.87C253.333 1154.93 251.733 1150.8 251.333 1148.67C250.8 1146.4 250 1144.67 249.467 1144.67C248.133 1144.67 242 1128.27 236 1108.67C230 1088.8 227.467 1081.47 226.667 1080.67C226.267 1080.27 225.067 1077.33 224.133 1074C223.2 1070.67 221.6 1065.87 220.533 1063.33C219.6 1060.8 218.133 1056 217.2 1052.67C216.4 1049.33 214.4 1042.4 212.667 1037.33C210.933 1032.13 208.133 1023.6 206.533 1018.27C204.933 1013.07 203.2 1008.67 202.667 1008.67C202.133 1008.67 201.333 1007.07 200.933 1004.93C200.133 1001.2 197.6 992 194.133 980C188.267 960.133 182.4 939.333 181.2 934.267C180.4 931.2 179.333 928.667 178.667 928.667C178.133 928.667 177.2 927.067 176.8 924.933C175.867 921.067 168.933 898.267 166 889.333C165.067 886.4 162.667 878.933 160.667 872.667C158.667 866.4 156.667 861.067 156 860.667C155.467 860.267 152.667 853.067 150 844.667C142.533 821.733 133.2 796.133 132.133 795.333C130.667 794.267 126 780.8 126.933 780C127.333 779.6 129.067 780.4 130.8 781.867C138.8 788.8 151.733 798.4 154.933 800.133C156.933 801.2 159.067 802.8 159.6 803.867C160.133 804.8 167.333 810.533 175.333 816.533C183.467 822.533 192.4 829.6 195.333 832.133C198.267 834.8 205.733 840.533 212 845.2C218.267 849.733 224.533 854.4 226 855.6C235.333 863.333 240.533 867.333 247.733 872.667C252.267 875.867 256 879.067 256 879.6C256 880 262.933 885.333 271.333 891.333C279.733 897.2 288.533 904.133 290.933 906.667C293.2 909.2 295.6 911.333 296.4 911.333C297.6 911.333 314.667 924.4 320.667 929.867C324.267 933.067 338.267 944.533 344 948.933C346.533 950.8 352.533 956.133 357.333 960.533C362 965.067 366.533 968.667 367.333 968.667C368.133 968.667 372.267 972 376.533 976.133C380.667 980.267 388.8 987.2 394.4 991.6C400 996.133 406.267 1001.33 408.133 1003.2C411.6 1006.67 433.2 1024.13 437.067 1026.67C438.267 1027.33 440.133 1028.93 441.333 1030.13C444.8 1033.73 457.6 1043.87 462.133 1046.67C464.533 1048.13 469.467 1052 473.2 1055.33C476.933 1058.53 482 1062.53 484.4 1064C491.2 1068.13 501.6 1075.73 503.867 1078.4C504.933 1079.6 506.4 1080.67 506.933 1080.67C507.6 1080.67 513.333 1084.4 519.733 1088.93C526.133 1093.6 533.333 1098.4 535.733 1099.73C538.133 1101.07 541.6 1103.6 543.6 1105.47C549.067 1110.53 571.733 1121.07 576.667 1120.93C583.067 1120.67 591.6 1115.87 592.533 1111.87C593.067 1110 594.933 1107.87 596.667 1107.07C598.533 1106.27 600 1105.07 600 1104.4C600 1102.67 614.933 1088.67 616.8 1088.67C619.733 1088.67 622.667 1083.73 622.667 1078.8C622.667 1075.07 621.2 1071.33 616.8 1064.8C611.6 1056.93 604 1039.6 604 1035.73C604 1034.93 603.2 1034 602.133 1033.6C601.2 1033.2 600 1030.93 599.467 1028.4C599.067 1026 597.2 1020.13 595.467 1015.33C593.733 1010.53 590.4 1000.4 588 992.667C581.2 970.667 579.467 965.333 578.4 964.667C577.467 963.867 573.067 951.067 568.8 936C567.467 931.6 565.733 925.6 564.667 922.667C563.733 919.733 561.6 912.8 559.867 907.333C558.267 901.867 556.533 897.067 556 896.667C554.8 895.867 543.333 859.867 541.333 850.667C538.133 836 535.6 826.667 534.533 825.467C533.867 824.667 533.333 823.067 533.333 821.733C533.333 820.4 532.8 819.333 532.267 819.333C531.6 819.333 530.4 816.133 529.6 812.267C527.867 805.067 524.933 794.8 518.667 775.333C514.267 761.467 512.667 755.6 510.8 745.467C510 741.067 508.8 737.2 508 736.667C506.8 736 504.667 726.8 499.2 698.667C498 692.8 495.733 683.6 494 678.267C492.267 672.933 490.4 665.733 490 662.267C488.8 653.867 486.8 647.333 485.2 647.333C484.533 647.333 484 645.867 484 644.267C484 642.533 483.067 638.133 481.867 634.533C480.667 630.933 479.2 625.6 478.667 622.667C478 619.733 476.667 614.8 475.467 611.867C473.6 606.667 472.4 601.467 465.067 568C463.733 561.333 462 555.733 461.2 555.6C459.733 554.933 459.6 549.067 461.2 548.4C461.733 548.133 462.8 546.667 463.2 544.933C463.867 542.933 463.6 541.733 462.133 541.2C460.933 540.8 460 539.6 460 538.533C460 537.467 459.467 535.6 458.8 534.267C458 533.067 457.2 529.867 456.667 527.333C456.133 523.867 453.867 520.533 448 514.667C443.6 510.267 440 506 440 505.067C440 502.933 435.733 500.667 431.6 500.667C429.867 500.667 426.8 502.133 424.933 503.867Z" fill="#CE4646"/>
  <path d="M1623.33 520.933C1621.87 521.733 1619.87 523.6 1618.93 524.933C1618 526.267 1616.27 527.333 1615.33 527.333C1614.27 527.333 1612.67 528.533 1611.73 530C1610.8 531.467 1609.47 532.667 1608.93 532.667C1607.73 532.667 1580.93 555.333 1580.27 556.933C1580 557.6 1578.93 558 1577.87 558C1576.8 558 1575.2 559.467 1574.4 561.333C1572.93 564.667 1574.67 571.067 1580.4 583.2C1582.93 588.667 1610.93 615.333 1616.67 617.867C1619.6 619.2 1625.33 622.533 1629.33 625.2C1633.33 627.867 1638 630 1639.6 630C1641.33 630 1642.67 630.8 1642.67 631.6C1642.67 632.8 1643.07 632.933 1643.73 631.867C1644.93 630 1652.67 626 1654.93 626C1655.87 626 1657.47 624.8 1658.4 623.333C1659.33 621.867 1660.93 620.667 1661.87 620.667C1662.93 620.667 1665.47 619.2 1667.6 617.467C1669.6 615.733 1673.6 613.067 1676.53 611.6C1679.33 610.133 1682.8 607.6 1684.27 606C1685.73 604.533 1688.67 602.8 1690.93 602.4C1693.07 602 1695.2 600.667 1695.6 599.467C1696 598.267 1697.2 596.4 1698.27 595.2C1699.87 593.333 1699.73 592.533 1696.93 589.2C1695.07 587.067 1692.27 582.933 1690.53 579.867C1688.8 576.8 1684 571.467 1680 568C1676 564.533 1670.93 560.133 1668.67 558.133C1666.53 556.267 1662.27 553.067 1659.33 551.2C1654 547.733 1642.67 534.4 1642.67 531.6C1642.67 530.667 1641.73 530 1640.53 530C1639.47 530 1636.27 527.6 1633.73 524.667C1628.53 518.933 1627.47 518.533 1623.33 520.933Z" fill="#CE4646"/>
  <path d="M1582 815.867C1579.07 816.933 1564.67 820.267 1550 823.2C1535.33 826.267 1523.2 829.2 1522.93 830C1522.67 830.667 1521.2 831.333 1519.73 831.333C1518.27 831.333 1512.13 832.533 1506.13 834C1461.2 845.2 1429.33 852.667 1426.93 852.667C1425.47 852.667 1423.33 853.467 1422.4 854.4C1421.47 855.333 1410.13 858.667 1397.33 861.867C1384.53 865.067 1366.8 869.467 1358 871.6C1349.2 873.867 1338.67 876.267 1334.67 877.067C1330.67 877.867 1326.93 879.067 1326.53 879.733C1325.6 881.067 1316.93 883.333 1264 896.8C1248.93 900.667 1236.4 904.133 1236 904.667C1235.6 905.2 1226.67 907.867 1216 910.667C1205.33 913.467 1188 918 1177.33 920.933C1166.67 923.733 1155.2 926.667 1151.73 927.6C1148.13 928.4 1145.33 929.6 1145.33 930.267C1145.33 930.8 1144.53 931.333 1143.73 931.333C1142.8 931.333 1137.2 932.8 1131.33 934.667C1125.47 936.4 1114.4 939.733 1106.67 942C1084.4 948.667 1070 953.2 1069.33 954C1068.53 954.8 1060.67 957.333 1040.67 963.333C1032.67 965.733 1024.8 968.133 1023.33 968.8C1021.87 969.333 1014.67 971.867 1007.33 974.133C1000 976.533 993.733 978.8 993.333 979.333C992.533 980.133 972.8 987.2 957.333 992C941.333 997.067 927.333 1002.27 926.667 1003.33C926.267 1004 919.067 1006.8 910.667 1009.73C902.267 1012.67 888.4 1017.6 880 1020.67C871.6 1023.73 863.333 1026.53 861.733 1026.93C860 1027.33 858.667 1028.13 858.667 1028.67C858.667 1029.2 854 1031.33 848.4 1033.2C842.667 1035.2 834.4 1038.27 830 1040C825.6 1041.6 816.133 1045.33 809.067 1048C801.867 1050.8 796 1053.47 796 1054.13C796 1054.67 794.133 1055.6 791.733 1056C789.467 1056.53 782.4 1059.07 776.133 1061.6C762 1067.33 750.8 1071.6 742 1074.67C738.4 1076 735.067 1077.47 734.667 1078C734 1079.07 727.867 1081.6 708.667 1089.07C702.133 1091.6 692 1095.6 686.133 1097.87C680.4 1100.13 674.933 1102 674 1102C672.933 1102 672 1102.53 671.733 1103.33C671.333 1104.4 655.2 1110.93 626.667 1121.47C621.867 1123.2 616.933 1125.33 615.733 1126C614.4 1126.8 612.4 1127.33 611.333 1127.33C610.267 1127.33 609.333 1127.87 609.333 1128.53C609.333 1129.73 608 1130.4 590 1136.67C583.467 1139.07 572.933 1142.93 566.667 1145.47C560.4 1148 554.667 1150 553.733 1150C552.933 1150 551.333 1150.8 550.4 1151.73C548.533 1153.6 542.933 1155.87 528 1161.33C514.933 1166 510.667 1167.6 498.4 1172.53C492.667 1174.8 487.2 1176.67 486 1176.67C484.933 1176.67 484 1177.2 484 1177.73C484 1178.4 481.467 1179.87 478.4 1181.2C475.2 1182.4 470.667 1184.4 468.267 1185.47C465.867 1186.53 463.2 1187.33 462.267 1187.33C459.2 1187.33 420.667 1202.67 419.6 1204.27C419.067 1205.2 417.733 1206 416.667 1206C414.667 1206 387.6 1217.07 374.133 1223.47C371.2 1224.93 368 1226 367.067 1226C366.133 1226 365.333 1226.53 365.333 1227.2C365.333 1228.27 322.933 1248.67 320.533 1248.67C319.733 1248.67 318 1249.73 316.533 1251.2C313.6 1253.87 296.933 1262 294.267 1262C293.333 1262 291.467 1262.93 290.133 1264C287.067 1266.4 265.067 1274.8 258.933 1276C256.667 1276.53 254.667 1277.33 254.667 1277.73C254.667 1278.27 251.6 1279.73 248 1281.07C240.133 1283.87 232 1290.53 232 1294.27C232 1295.6 232.533 1297.87 233.333 1299.2C234 1300.53 234.933 1305.47 235.2 1310.13C235.867 1317.2 236.533 1319.07 239.467 1321.47C242.8 1324.27 242.8 1324.4 240.8 1329.2C239.333 1332.93 239.067 1334.93 240.133 1336.8C240.933 1338.4 240.933 1341.07 240.133 1344.4C239.467 1347.07 238.533 1351.33 238.133 1353.6L237.467 1358H243.2C250.4 1358 268 1354.13 268 1352.53C268 1351.87 269.2 1351.33 270.667 1351.33C276 1351.33 329.333 1329.47 329.333 1327.33C329.333 1326.53 337.067 1322.67 366 1309.33C373.333 1305.87 379.6 1302.67 380 1302C381.067 1300.4 411.733 1285.73 421.733 1282.13C426.667 1280.27 430.667 1278.4 430.667 1277.87C430.667 1277.47 432.667 1276.27 435.067 1275.33C437.333 1274.53 444.8 1271.6 451.333 1269.07C458 1266.53 465.733 1263.6 468.667 1262.4C471.6 1261.33 475.2 1259.87 476.667 1259.2C478.133 1258.53 482.4 1257.07 486 1255.87C489.733 1254.67 492.933 1253.2 493.333 1252.53C493.733 1252 498.933 1249.73 504.667 1247.6C510.533 1245.47 519.867 1241.87 525.333 1239.73C530.8 1237.6 539.733 1234.13 544.933 1232.13C550.267 1230.13 554.667 1227.87 554.667 1227.2C554.667 1226.53 555.733 1226 557.067 1226C558.267 1226 563.867 1224.27 569.333 1222.13C574.8 1219.87 583.867 1216.53 589.333 1214.53C594.8 1212.53 599.867 1210.4 600.533 1209.73C601.333 1209.2 602.933 1208.67 604.267 1208.67C606.8 1208.67 616.133 1204.67 617.333 1203.07C617.733 1202.53 623.2 1200.27 629.333 1198C635.6 1195.73 646.133 1191.73 652.667 1189.33C659.333 1186.8 668.267 1183.47 672.667 1181.87C677.067 1180.27 680.933 1178.53 681.333 1178C682.267 1176.93 694.267 1171.33 695.867 1171.33C696.933 1171.33 712.8 1165.6 722 1162C723.467 1161.33 729.2 1159.2 734.667 1157.2C740.133 1155.2 744.933 1153.07 745.333 1152.53C746.4 1151.07 796.933 1131.33 799.867 1131.33C800.533 1131.33 801.733 1130.53 802.267 1129.6C802.8 1128.67 810.267 1125.33 818.667 1122.13C827.067 1119.07 837.067 1115.33 840.667 1113.87C844.4 1112.27 851.467 1109.6 856.667 1107.73C861.733 1105.87 866.267 1104 866.667 1103.33C867.067 1102.8 872.133 1100.67 878 1098.67C883.867 1096.67 897.067 1092 907.333 1088.4C917.6 1084.8 928.267 1081.07 931.067 1080.27C933.733 1079.47 936 1078.27 936 1077.73C936 1077.2 938.8 1075.87 942.4 1074.8C945.867 1073.73 952.933 1071.2 958 1069.33C963.2 1067.33 971.2 1064.4 976 1062.67C980.8 1060.93 987.333 1058.53 990.667 1057.33C994 1056.13 996.933 1054.67 997.333 1054.13C997.733 1053.6 1009.47 1049.47 1023.33 1044.93C1037.33 1040.27 1053.6 1034.93 1059.73 1032.93C1065.73 1030.93 1070.67 1028.93 1070.67 1028.4C1070.67 1027.73 1071.6 1027.33 1072.67 1027.33C1073.87 1027.33 1079.33 1025.87 1085.07 1024C1104.27 1017.87 1141.6 1006.53 1147.07 1005.2C1149.07 1004.8 1150.67 1004 1150.67 1003.47C1150.67 1003.07 1154.4 1001.6 1159.07 1000.4C1163.6 999.2 1178.13 995.2 1191.33 991.6C1204.53 988 1219.6 983.867 1224.67 982.533C1229.87 981.2 1234.27 979.733 1234.67 979.2C1235.07 978.8 1243.2 976.4 1252.67 974C1262.27 971.733 1273.07 968.933 1276.67 968C1280.4 966.933 1288.4 964.8 1294.67 963.2C1317.2 957.6 1327.33 954.667 1328 954C1328.4 953.467 1334.4 951.867 1341.33 950.133C1348.27 948.533 1358.8 946.133 1364.67 944.667C1370.53 943.333 1382.27 940.533 1390.67 938.667C1415.33 932.933 1423.33 930.933 1424 930C1424.4 929.467 1434.27 926.8 1446 924C1482.13 915.467 1492.27 913.2 1503.33 911.2C1507.73 910.4 1512 909.2 1512.67 908.667C1513.47 908.133 1516.8 907.2 1520.4 906.8C1523.87 906.267 1526.67 905.333 1526.67 904.8C1526.67 904.133 1528.27 903.333 1530.4 902.933C1532.4 902.533 1537.33 901.467 1541.33 900.667C1545.33 899.867 1552.53 898.4 1557.33 897.333C1573.87 893.467 1588.67 891.333 1599.07 891.333C1604.67 891.333 1610.4 890.8 1611.73 890.133C1612.93 889.467 1615.07 888.533 1616.4 888.133C1620.8 886.8 1621.6 880.667 1621.87 850.667C1622.13 813.333 1622.93 814.8 1601.73 814.4C1591.87 814.133 1585.73 814.667 1582 815.867Z" fill="#CE4646"/>
</svg>