<svg width="70" height="70" viewBox="0 0 1734 1358" fill="none" xmlns="http://www.w3.org/2000/svg">
  <path d="M1488.57 2.40878C1486.7 3.87545 1484.7 5.07545 1484.04 5.07545C1483.37 5.07545 1481.1 7.07545 1479.1 9.34211C1475.9 13.2088 1475.1 13.6088 1472.7 12.1421C1470.3 10.6754 1469.5 11.0754 1465.37 15.8754C1462.7 19.0754 1459.77 21.2088 1458.3 21.0754C1452.44 20.4088 1450.04 21.2088 1449.64 23.8754C1449.24 26.6754 1441.64 30.4088 1436.04 30.4088C1433.77 30.4088 1433.64 31.2088 1434.3 37.7421C1434.7 41.7421 1436.04 46.0088 1437.1 47.2088C1438.3 48.2754 1439.24 50.1421 1439.24 51.2088C1439.24 53.3421 1446.3 76.0088 1453.24 95.7421C1455.64 102.675 1458.04 110.142 1458.44 112.275C1458.97 114.275 1460.3 116.942 1461.24 118.009C1462.3 119.075 1463.24 121.209 1463.24 122.942C1463.24 124.542 1463.77 126.409 1464.3 127.075C1464.97 127.875 1469.24 140.142 1473.9 154.409C1478.57 168.675 1482.7 180.675 1483.24 181.075C1483.9 181.742 1491.9 206.275 1497.37 225.075C1498.57 229.075 1500.3 234.809 1501.37 237.742C1502.3 240.675 1503.37 244.675 1503.77 246.675C1504.17 248.675 1505.37 251.075 1506.3 252.009C1507.37 252.942 1508.44 255.342 1508.84 257.075C1509.64 260.675 1516.04 279.342 1518.7 285.742C1519.64 287.875 1522.17 295.475 1524.44 302.409C1526.84 309.342 1529.1 315.342 1529.64 315.742C1530.3 316.142 1532.7 321.742 1535.1 328.409C1540.84 344.275 1543.24 350.542 1544.7 353.342C1545.37 354.675 1545.9 356.409 1545.9 357.342C1545.9 359.742 1552.97 376.275 1554.17 376.809C1554.84 377.075 1555.24 378.275 1555.24 379.609C1555.24 380.809 1555.77 382.409 1556.3 383.209C1556.97 383.875 1558.57 388.009 1559.9 392.409C1561.37 396.809 1563.24 401.609 1564.17 403.075C1565.1 404.542 1565.9 406.675 1565.9 407.742C1565.9 408.942 1567.37 413.075 1569.24 416.809C1571.1 420.675 1572.57 424.542 1572.57 425.609C1572.57 426.675 1573.24 428.009 1573.9 428.409C1574.7 428.809 1575.24 430.409 1575.24 431.742C1575.24 433.075 1576.04 435.075 1577.1 436.142C1579.9 438.942 1587.24 454.809 1587.24 458.142C1587.24 462.542 1589.77 467.875 1594.7 473.875C1597.24 476.942 1599.24 479.875 1599.24 480.409C1599.24 480.942 1600.7 482.542 1602.7 484.009C1604.57 485.475 1608.3 489.742 1611.1 493.609C1618.3 503.075 1622.17 507.209 1625.1 508.275C1628.04 509.209 1636.57 506.809 1636.57 504.942C1636.57 504.275 1637.24 503.742 1638.04 503.742C1638.84 503.742 1641.24 502.275 1643.5 500.409C1645.64 498.542 1648.44 497.075 1649.64 497.075C1650.7 497.075 1652.97 495.875 1654.44 494.542C1658.7 490.675 1669.37 485.075 1672.57 485.075C1678.97 485.075 1685.37 472.409 1682.04 466.009C1678.7 459.475 1675.24 453.875 1672.7 450.942C1671.37 449.342 1669.77 446.809 1669.24 445.209C1668.84 443.609 1666.17 438.675 1663.37 434.009C1657.77 424.942 1651.77 412.409 1650.44 407.075C1650.04 405.209 1649.1 403.742 1648.57 403.742C1648.04 403.742 1646.7 401.209 1645.5 398.009C1643.37 392.009 1639.77 382.275 1635.24 370.409C1633.64 366.409 1630.97 358.942 1629.1 353.875C1627.37 348.675 1625.37 344.275 1624.7 343.875C1623.5 342.942 1614.97 320.409 1607.1 297.075C1604.04 287.875 1601.1 280.142 1600.57 279.742C1600.04 279.342 1598.7 276.409 1597.5 273.075C1596.44 269.742 1594.84 265.609 1594.17 263.742C1593.5 261.875 1590.84 254.142 1588.57 246.409C1586.17 238.675 1583.37 230.275 1582.44 227.742C1581.5 225.209 1580.3 221.609 1579.77 219.742C1579.24 217.875 1578.44 216.142 1577.9 215.742C1577.37 215.342 1574.17 206.675 1570.7 196.409C1567.37 186.142 1563.9 175.875 1563.1 173.742C1562.3 171.475 1560.17 164.675 1558.3 158.409C1556.44 152.142 1554.44 146.809 1553.77 146.409C1552.57 145.609 1552.3 144.542 1540.7 108.275C1536.17 94.1421 1532.17 80.8088 1531.77 78.5421C1531.24 76.2754 1530.44 74.4088 1529.77 74.4088C1529.24 74.4088 1527.1 69.4754 1525.24 63.4754C1523.37 57.4754 1520.04 48.5421 1517.9 43.6088C1515.64 38.6754 1513.9 34.0088 1513.9 33.0754C1513.9 31.2088 1508.57 19.3421 1507.24 18.4088C1506.7 18.0088 1504.7 14.6754 1502.57 11.0754C1495.64 -1.05789 1494.17 -1.99122 1488.57 2.40878Z" fill="#8A46CE"/>
  <path d="M1333.1 183.742C1332.3 184.276 1331.37 185.742 1330.84 187.076C1330.3 188.276 1328.84 189.742 1327.64 190.276C1326.3 190.809 1324.3 192.276 1323.1 193.609C1321.9 194.942 1320.17 196.009 1319.37 196.009C1317.24 196.009 1293.9 217.476 1293.9 219.476C1293.9 220.276 1292.44 222.276 1290.7 223.876C1286.97 227.476 1287.24 228.809 1293.5 237.742C1295.9 241.209 1297.9 244.409 1297.9 244.942C1297.9 245.342 1299.9 247.609 1302.3 250.009C1304.57 252.409 1308.44 257.876 1310.57 262.142C1316.44 273.476 1322.97 284.942 1324.97 286.942C1326.57 288.542 1336.97 309.342 1345.24 327.342C1347.24 331.742 1349.37 335.609 1350.04 336.009C1351.1 336.676 1356.44 351.476 1362.17 369.342C1363.64 374.142 1366.04 381.476 1367.37 385.742C1368.84 389.876 1369.9 394.542 1369.9 395.876C1369.9 397.342 1370.7 399.342 1371.64 400.276C1373.5 402.142 1383.24 440.942 1385.77 456.276C1386.57 461.342 1387.9 469.076 1388.57 473.609C1396.17 520.276 1396.97 576.409 1390.44 619.609C1386.97 643.209 1376.44 680.276 1372.04 684.676C1370.97 685.742 1369.37 688.809 1368.44 691.609C1367.64 694.276 1364.84 699.876 1362.3 703.876C1359.77 708.009 1356.7 712.942 1355.5 714.942C1354.3 716.942 1350.84 719.609 1347.9 720.809C1344.97 722.009 1341.1 723.609 1339.37 724.542C1337.37 725.476 1329.37 725.876 1319.37 725.876C1305.5 725.609 1300.57 724.942 1290.57 722.009C1284.04 720.142 1278.44 718.009 1278.17 717.209C1277.9 716.542 1277.1 716.009 1276.3 716.009C1272.17 716.009 1240.3 698.542 1231.64 691.476C1230.3 690.409 1224.44 685.742 1218.57 681.209C1206.57 671.876 1180.3 645.609 1171.24 633.876C1167.9 629.609 1164.04 624.942 1162.44 623.342C1158.7 619.342 1143.77 595.742 1141.37 590.009C1140.3 587.476 1138.84 585.342 1138.17 585.342C1136.97 585.342 1130.84 573.342 1120.17 550.676C1117.24 544.409 1114.57 539.076 1114.04 538.676C1112.04 537.076 1098.04 502.676 1093.9 489.342C1092.84 486.009 1091.64 483.076 1091.24 482.676C1090.04 481.742 1087.5 474.809 1086.04 468.676C1085.37 465.742 1083.77 460.009 1082.57 456.009C1077.24 438.409 1072.57 414.142 1069.77 390.009C1068.84 382.676 1067.64 376.276 1066.97 375.876C1065.1 374.676 1064.97 326.809 1066.84 325.609C1068.3 324.676 1071.1 315.076 1071.24 310.409C1071.24 309.209 1068.84 305.609 1065.9 302.542C1062.97 299.342 1060.57 296.009 1060.57 294.942C1060.57 294.009 1058.44 290.409 1055.9 287.076C1053.37 283.742 1051.24 280.276 1051.24 279.342C1051.24 278.542 1048.97 275.609 1046.04 272.942L1040.97 268.276L1039.37 271.476C1038.57 273.342 1037.9 275.609 1037.9 276.676C1037.9 277.742 1036.44 278.942 1034.7 279.476C1032.57 280.009 1030.84 282.009 1029.5 285.476C1027.64 290.276 1026.97 290.676 1022.44 290.676C1015.37 290.676 1008.97 293.342 1007.37 296.942C1006.57 298.676 1005.1 300.009 1004.04 300.009C1002.97 300.009 1001.37 302.142 1000.44 304.676C998.569 309.742 995.769 310.676 993.103 306.942C991.503 304.809 991.103 304.809 987.636 306.676C981.103 310.276 980.036 316.142 980.036 347.342C980.036 369.076 980.703 380.142 982.969 396.676C986.569 422.809 994.036 457.876 996.569 460.009C998.036 461.342 1000.57 468.142 1000.57 470.676C1000.57 473.342 1003.5 482.676 1006.44 490.009C1007.37 492.142 1009.24 497.609 1010.7 502.009C1012.04 506.409 1013.9 511.476 1014.84 513.342C1015.77 515.209 1016.57 517.476 1016.57 518.409C1016.57 520.142 1019.37 525.609 1020.84 526.676C1021.9 527.476 1027.24 539.742 1027.24 541.342C1027.24 541.876 1030.3 548.809 1033.9 556.542C1037.64 564.276 1040.57 571.342 1040.57 572.009C1040.57 572.676 1041.37 573.742 1042.44 574.276C1043.5 574.809 1047.1 580.942 1050.57 587.876C1057.24 601.209 1065.64 615.076 1067.5 615.742C1068.04 616.009 1068.57 616.809 1068.57 617.609C1068.57 618.409 1072.17 624.276 1076.57 630.809C1080.97 637.209 1084.57 643.076 1084.57 643.609C1084.57 644.276 1087.37 647.742 1090.7 651.342C1094.04 655.076 1100.04 662.142 1104.04 667.342C1107.9 672.409 1114.57 680.009 1118.57 684.009C1122.57 688.009 1125.9 691.876 1125.9 692.542C1125.9 694.276 1136.7 705.876 1139.37 706.942C1140.57 707.342 1142.97 709.609 1144.7 711.876C1146.44 714.142 1150.57 718.542 1153.77 721.742C1156.97 724.809 1164.97 732.409 1171.37 738.676C1177.9 744.942 1185.9 752.142 1189.37 754.676C1192.84 757.209 1198.44 761.876 1201.77 764.942C1205.1 768.142 1208.3 770.676 1208.84 770.676C1209.5 770.676 1212.7 772.676 1216.17 775.209C1219.77 777.609 1227.64 782.276 1233.9 785.476C1240.17 788.676 1246.04 792.009 1246.97 792.942C1247.9 793.876 1251.24 795.342 1254.3 796.142C1257.37 796.942 1262.04 798.676 1264.57 800.009C1273.9 804.676 1296.97 806.009 1310.57 802.676C1313.5 802.009 1318.57 801.342 1321.9 801.342C1332.17 801.076 1342.44 798.276 1346.04 794.676C1347.77 792.809 1350.7 790.542 1352.57 789.476C1359.24 785.609 1368.17 780.942 1378.17 775.742C1383.77 772.942 1389.77 769.076 1391.5 767.342C1393.24 765.476 1395.24 764.009 1396.17 764.009C1398.57 764.009 1412.44 753.076 1421.5 744.142C1426.04 739.609 1432.57 731.609 1436.17 726.276C1439.64 720.942 1442.84 716.409 1443.37 716.009C1447.1 713.209 1463.24 675.476 1465.24 664.942C1465.77 662.142 1466.57 660.009 1467.1 660.009C1470.7 660.009 1478.57 613.609 1480.57 581.342C1481.9 558.409 1481.37 521.609 1479.37 506.676C1478.7 501.876 1478.57 497.476 1478.84 496.942C1479.24 496.409 1478.57 492.142 1477.5 487.609C1476.3 483.076 1475.1 475.742 1474.57 471.342C1474.17 466.942 1472.97 460.009 1471.9 456.009C1470.97 452.009 1469.77 445.476 1469.24 441.609C1468.7 437.876 1467.77 434.676 1467.24 434.676C1466.57 434.676 1465.77 432.142 1465.24 428.942C1463.24 416.676 1445.24 354.942 1443.1 353.342C1442.57 352.942 1441.37 350.009 1440.17 346.676C1439.1 343.342 1437.37 338.809 1436.57 336.676C1435.64 334.409 1434.3 331.209 1433.64 329.342C1432.97 327.476 1431.5 324.276 1430.44 322.276C1429.37 320.142 1428.57 317.742 1428.57 316.942C1428.57 314.542 1421.5 300.809 1419.64 299.609C1418.7 299.076 1417.9 297.476 1417.9 296.276C1417.9 295.076 1415.1 289.209 1411.77 283.342C1408.3 277.476 1403.77 269.342 1401.64 265.342C1399.37 261.342 1397.1 257.742 1396.57 257.342C1395.9 256.942 1393.24 252.542 1390.7 247.609C1388.04 242.676 1384.44 236.276 1382.84 233.609C1381.1 230.942 1378.7 226.142 1377.5 222.942C1376.17 219.609 1371.77 213.876 1366.84 208.942C1362.17 204.409 1356.7 198.409 1354.7 195.609C1352.57 192.942 1350.17 190.676 1349.37 190.676C1348.44 190.676 1346.04 188.809 1343.9 186.676C1340.17 182.809 1336.04 181.609 1333.1 183.742Z" fill="#8A46CE"/>
  <path d="M424.836 522.2C421.502 525.4 417.769 527.667 410.569 530.867C404.302 533.8 394.036 540.333 387.902 545.267C385.902 547 383.769 548.333 383.369 548.333C382.836 548.333 381.236 549.533 379.636 550.867C376.569 553.8 376.436 552.467 381.769 579C388.569 613.8 389.636 618.333 390.836 619.133C391.636 619.667 392.702 622.867 393.369 626.467C394.036 630.067 395.502 635.933 396.436 639.667C399.236 649.267 411.769 698.867 412.836 704.333C413.236 706.867 414.169 709.4 414.836 709.8C415.769 710.467 429.236 760.067 432.036 773.4C432.569 776.467 433.769 780.2 434.569 781.533C435.236 783 435.902 785.4 435.902 787C435.902 788.6 436.836 790.733 437.902 791.8C438.969 793 439.902 794.867 439.902 796.2C439.902 797.533 441.502 803.533 443.369 809.8C445.236 815.933 447.902 825.533 449.369 831C452.036 841 453.902 847.933 457.769 861.533C458.836 865.533 460.302 869.133 460.969 869.533C461.636 869.933 462.702 872.467 463.236 875C463.769 877.533 465.502 883.8 467.236 889C468.836 894.067 471.769 904.333 473.769 911.667C478.702 929.533 484.302 946.2 485.502 946.733C486.169 947 486.569 948.067 486.569 949.133C486.569 951 488.302 957 497.236 985.667C503.236 1004.87 502.569 1006.87 492.969 997.533C489.769 994.6 486.302 991.667 484.969 991.267C482.836 990.333 470.702 980.2 464.169 973.933C462.569 972.333 460.702 971 460.169 971C459.636 971 454.436 966.733 448.569 961.667C442.702 956.6 435.502 950.333 432.569 947.933C429.636 945.4 424.569 941 421.236 938.2C417.902 935.267 412.969 931.267 410.169 929.133C407.369 927.133 402.302 922.733 398.969 919.533C395.769 916.333 392.436 913.667 391.769 913.667C390.569 913.667 388.436 911.933 375.902 900.2C372.569 897.133 368.436 893.667 366.569 892.6C364.702 891.4 358.969 887 353.769 882.733C348.569 878.467 343.636 875 342.836 875C341.902 875 341.236 874.467 341.236 873.8C341.236 872.467 327.369 861.267 317.236 854.333C313.902 852.067 308.302 847.4 304.569 843.933C300.969 840.467 297.236 837.667 296.569 837.667C295.236 837.667 285.369 829.933 278.036 823.267C275.902 821.267 273.102 819.133 271.769 818.333C268.569 816.467 248.836 801.533 247.236 799.667C245.636 797.933 232.302 787.8 224.569 782.6C221.636 780.6 215.636 775.667 211.236 771.667C206.836 767.667 202.702 764.333 202.169 764.333C200.836 764.333 191.636 757.4 182.302 749.267C178.436 745.933 170.702 739.267 165.236 734.6C159.769 729.933 150.436 721.533 144.569 715.8C138.702 710.2 132.569 705 130.969 704.333C129.369 703.667 126.569 700.867 124.836 698.067C122.969 695.267 118.036 689.8 113.769 686.067C101.769 675.4 99.7691 673.4 93.2358 666.067C89.1024 661.4 85.7691 659 82.8358 658.333C78.5691 657.4 78.4358 657.533 79.7691 660.2C80.7024 661.8 82.8358 663.933 84.5691 665.133C86.8358 666.6 87.9024 668.6 87.9024 671.133C87.9024 675.8 85.9024 676.067 82.5691 671.933C80.4358 669.533 79.6358 669.267 77.5024 670.6C75.3691 671.933 74.3024 671.133 69.2358 664.867C63.7691 657.933 58.7024 653.667 56.0358 653.667C55.2358 653.667 52.5691 655.4 50.1691 657.667C47.6358 659.8 44.5691 661.667 43.2358 661.667C39.9024 661.667 31.5024 665.933 29.5024 668.6C28.4358 669.933 26.0358 671 23.7691 671C21.2358 671 19.9024 671.667 19.9024 673C19.9024 674.067 18.0358 675.267 15.2358 675.8C12.5691 676.2 9.90244 677.667 9.23577 679C8.56911 680.333 6.16911 682.067 3.90244 682.733C-1.43089 684.6 -1.29756 688.2 4.30244 700.6C6.83577 705.933 9.90244 712.867 11.2358 715.933C12.5691 719.133 14.1691 721.667 14.8358 721.667C15.3691 721.667 15.9024 722.333 15.9024 723.133C15.9024 723.933 16.7024 726.467 17.7691 728.733C18.8358 731.133 21.2358 737.133 23.1024 742.333C25.1024 747.4 27.5024 753.4 28.4358 755.667C29.5024 757.8 30.7024 760.867 30.9691 762.333C32.4358 767.667 36.1691 777 37.1024 777.667C38.4358 778.467 41.7691 787.667 50.5691 813.667C59.1024 839 60.3024 842.067 62.1691 843.933C62.9691 844.867 64.0358 847.533 64.5691 849.933C64.9691 852.333 66.3024 856.733 67.5024 859.667C68.5691 862.6 70.0358 866.2 70.5691 867.667C72.3024 872.333 82.4358 904.867 83.3691 908.6C83.7691 910.733 84.7024 912.333 85.3691 912.333C85.9024 912.333 87.1024 914.867 88.0358 917.933C88.8358 921.133 90.8358 928.2 92.5691 933.667C100.702 959.267 103.902 970.467 103.902 972.6C103.902 975 106.569 981.8 107.902 983C108.436 983.4 109.769 987.267 110.969 991.667C112.302 996.067 113.902 1001.4 114.436 1003.67C115.102 1005.8 116.969 1012.47 118.569 1018.33C120.169 1024.2 122.969 1032.87 124.702 1037.67C126.436 1042.47 128.302 1048.87 128.969 1051.93C129.769 1055 131.236 1058.47 132.436 1059.67C133.636 1060.87 134.569 1062.73 134.569 1063.8C134.569 1065 135.502 1069 136.569 1072.73C137.769 1076.6 139.502 1082.6 140.436 1086.33C142.569 1093.93 147.636 1111.4 149.236 1116.33C149.769 1118.2 151.369 1123.4 152.702 1127.93C154.169 1132.6 155.636 1136.33 156.036 1136.33C156.436 1136.33 157.636 1138.87 158.436 1141.93C160.302 1148.07 163.102 1155.8 166.036 1162.6C167.102 1164.87 167.902 1167.67 167.902 1168.87C167.902 1173.53 178.702 1188.07 191.902 1201.4C196.702 1206.33 198.969 1207.53 202.969 1207.8C207.236 1208.07 208.302 1207.53 209.236 1205C210.836 1200.87 213.102 1199.67 214.036 1202.33C214.702 1203.93 215.902 1204.2 219.102 1203.4C221.369 1202.87 225.902 1202.33 229.236 1202.2C240.969 1201.67 247.769 1199.13 253.636 1193.4C258.036 1189 258.302 1183.8 254.702 1176.2C253.236 1173.27 251.636 1169.13 251.236 1167C250.702 1164.73 249.902 1163 249.369 1163C248.036 1163 241.902 1146.6 235.902 1127C229.902 1107.13 227.369 1099.8 226.569 1099C226.169 1098.6 224.969 1095.67 224.036 1092.33C223.102 1089 221.502 1084.2 220.436 1081.67C219.502 1079.13 218.036 1074.33 217.102 1071C216.302 1067.67 214.302 1060.73 212.569 1055.67C210.836 1050.47 208.036 1041.93 206.436 1036.6C204.836 1031.4 203.102 1027 202.569 1027C202.036 1027 201.236 1025.4 200.836 1023.27C200.036 1019.53 197.502 1010.33 194.036 998.333C188.169 978.467 182.302 957.667 181.102 952.6C180.302 949.533 179.236 947 178.569 947C178.036 947 177.102 945.4 176.702 943.267C175.769 939.4 168.836 916.6 165.902 907.667C164.969 904.733 162.569 897.267 160.569 891C158.569 884.733 156.569 879.4 155.902 879C155.369 878.6 152.569 871.4 149.902 863C142.436 840.067 133.102 814.467 132.036 813.667C130.569 812.6 125.902 799.133 126.836 798.333C127.236 797.933 128.969 798.733 130.702 800.2C138.702 807.133 151.636 816.733 154.836 818.467C156.836 819.533 158.969 821.133 159.502 822.2C160.036 823.133 167.236 828.867 175.236 834.867C183.369 840.867 192.302 847.933 195.236 850.467C198.169 853.133 205.636 858.867 211.902 863.533C218.169 868.067 224.436 872.733 225.902 873.933C235.236 881.667 240.436 885.667 247.636 891C252.169 894.2 255.902 897.4 255.902 897.933C255.902 898.333 262.836 903.667 271.236 909.667C279.636 915.533 288.436 922.467 290.836 925C293.102 927.533 295.502 929.667 296.302 929.667C297.502 929.667 314.569 942.733 320.569 948.2C324.169 951.4 338.169 962.867 343.902 967.267C346.436 969.133 352.436 974.467 357.236 978.867C361.902 983.4 366.436 987 367.236 987C368.036 987 372.169 990.333 376.436 994.467C380.569 998.6 388.702 1005.53 394.302 1009.93C399.902 1014.47 406.169 1019.67 408.036 1021.53C411.502 1025 433.102 1042.47 436.969 1045C438.169 1045.67 440.036 1047.27 441.236 1048.47C444.702 1052.07 457.502 1062.2 462.036 1065C464.436 1066.47 469.369 1070.33 473.102 1073.67C476.836 1076.87 481.902 1080.87 484.302 1082.33C491.102 1086.47 501.502 1094.07 503.769 1096.73C504.836 1097.93 506.302 1099 506.836 1099C507.502 1099 513.236 1102.73 519.636 1107.27C526.036 1111.93 533.236 1116.73 535.636 1118.07C538.036 1119.4 541.502 1121.93 543.502 1123.8C548.969 1128.87 571.636 1139.4 576.569 1139.27C582.969 1139 591.502 1134.2 592.436 1130.2C592.969 1128.33 594.836 1126.2 596.569 1125.4C598.436 1124.6 599.902 1123.4 599.902 1122.73C599.902 1121 614.836 1107 616.702 1107C619.636 1107 622.569 1102.07 622.569 1097.13C622.569 1093.4 621.102 1089.67 616.702 1083.13C611.502 1075.27 603.902 1057.93 603.902 1054.07C603.902 1053.27 603.102 1052.33 602.036 1051.93C601.102 1051.53 599.902 1049.27 599.369 1046.73C598.969 1044.33 597.102 1038.47 595.369 1033.67C593.636 1028.87 590.302 1018.73 587.902 1011C581.102 989 579.369 983.667 578.302 983C577.369 982.2 572.969 969.4 568.702 954.333C567.369 949.933 565.636 943.933 564.569 941C563.636 938.067 561.502 931.133 559.769 925.667C558.169 920.2 556.436 915.4 555.902 915C554.702 914.2 543.236 878.2 541.236 869C538.036 854.333 535.502 845 534.436 843.8C533.769 843 533.236 841.4 533.236 840.067C533.236 838.733 532.702 837.667 532.169 837.667C531.502 837.667 530.302 834.467 529.502 830.6C527.769 823.4 524.836 813.133 518.569 793.667C514.169 779.8 512.569 773.933 510.702 763.8C509.902 759.4 508.702 755.533 507.902 755C506.702 754.333 504.569 745.133 499.102 717C497.902 711.133 495.636 701.933 493.902 696.6C492.169 691.267 490.302 684.067 489.902 680.6C488.702 672.2 486.702 665.667 485.102 665.667C484.436 665.667 483.902 664.2 483.902 662.6C483.902 660.867 482.969 656.467 481.769 652.867C480.569 649.267 479.102 643.933 478.569 641C477.902 638.067 476.569 633.133 475.369 630.2C473.502 625 472.302 619.8 464.969 586.333C463.636 579.667 461.902 574.067 461.102 573.933C459.636 573.267 459.502 567.4 461.102 566.733C461.636 566.467 462.702 565 463.102 563.267C463.769 561.267 463.502 560.067 462.036 559.533C460.836 559.133 459.902 557.933 459.902 556.867C459.902 555.8 459.369 553.933 458.702 552.6C457.902 551.4 457.102 548.2 456.569 545.667C456.036 542.2 453.769 538.867 447.902 533C443.502 528.6 439.902 524.333 439.902 523.4C439.902 521.267 435.636 519 431.502 519C429.769 519 426.702 520.467 424.836 522.2Z" fill="#8A46CE"/>
  <path d="M1657.24 520.009C1655.77 520.809 1653.77 522.675 1652.84 524.009C1651.9 525.342 1650.17 526.409 1649.24 526.409C1648.17 526.409 1646.57 527.609 1645.64 529.075C1644.7 530.542 1643.37 531.742 1642.84 531.742C1641.64 531.742 1614.84 554.409 1614.17 556.009C1613.9 556.675 1612.84 557.075 1611.77 557.075C1610.7 557.075 1609.1 558.542 1608.3 560.409C1606.84 563.742 1608.57 570.142 1614.3 582.275C1616.84 587.742 1644.84 614.409 1650.57 616.942C1653.5 618.275 1659.24 621.609 1663.24 624.275C1667.24 626.942 1671.9 629.075 1673.5 629.075C1675.24 629.075 1676.57 629.875 1676.57 630.675C1676.57 631.875 1676.97 632.009 1677.64 630.942C1678.84 629.075 1686.57 625.075 1688.84 625.075C1689.77 625.075 1691.37 623.875 1692.3 622.409C1693.24 620.942 1694.84 619.742 1695.77 619.742C1696.84 619.742 1699.37 618.275 1701.5 616.542C1703.5 614.809 1707.5 612.142 1710.44 610.675C1713.24 609.209 1716.7 606.675 1718.17 605.075C1719.64 603.609 1722.57 601.875 1724.84 601.475C1726.97 601.075 1729.1 599.742 1729.5 598.542C1729.9 597.342 1731.1 595.475 1732.17 594.275C1733.77 592.409 1733.64 591.609 1730.84 588.275C1728.97 586.142 1726.17 582.009 1724.44 578.942C1722.7 575.875 1717.9 570.542 1713.9 567.075C1709.9 563.609 1704.84 559.209 1702.57 557.209C1700.44 555.342 1696.17 552.142 1693.24 550.275C1687.9 546.809 1676.57 533.475 1676.57 530.675C1676.57 529.742 1675.64 529.075 1674.44 529.075C1673.37 529.075 1670.17 526.675 1667.64 523.742C1662.44 518.009 1661.37 517.609 1657.24 520.009Z" fill="#8A46CE"/>
  <path d="M1615.9 814.942C1612.97 816.009 1598.57 819.342 1583.9 822.275C1569.24 825.342 1557.1 828.275 1556.84 829.075C1556.57 829.742 1555.1 830.409 1553.64 830.409C1552.17 830.409 1546.04 831.609 1540.04 833.075C1495.1 844.275 1463.24 851.742 1460.84 851.742C1459.37 851.742 1457.24 852.542 1456.3 853.475C1455.37 854.409 1444.04 857.742 1431.24 860.942C1418.44 864.142 1400.7 868.542 1391.9 870.675C1383.1 872.942 1372.57 875.342 1368.57 876.142C1364.57 876.942 1360.84 878.142 1360.44 878.809C1359.5 880.142 1350.84 882.409 1297.9 895.875C1282.84 899.742 1270.3 903.209 1269.9 903.742C1269.5 904.275 1260.57 906.942 1249.9 909.742C1239.24 912.542 1221.9 917.075 1211.24 920.009C1200.57 922.809 1189.1 925.742 1185.64 926.675C1182.04 927.475 1179.24 928.675 1179.24 929.342C1179.24 929.875 1178.44 930.409 1177.64 930.409C1176.7 930.409 1171.1 931.875 1165.24 933.742C1159.37 935.475 1148.3 938.809 1140.57 941.075C1118.3 947.742 1103.9 952.275 1103.24 953.075C1102.44 953.875 1094.57 956.409 1074.57 962.409C1066.57 964.809 1058.7 967.209 1057.24 967.875C1055.77 968.409 1048.57 970.942 1041.24 973.209C1033.9 975.609 1027.64 977.875 1027.24 978.409C1026.44 979.209 1006.7 986.275 991.236 991.075C975.236 996.142 961.236 1001.34 960.569 1002.41C960.169 1003.08 952.969 1005.88 944.569 1008.81C936.169 1011.74 922.303 1016.68 913.902 1019.74C905.502 1022.81 897.236 1025.61 895.636 1026.01C893.902 1026.41 892.569 1027.21 892.569 1027.74C892.569 1028.28 887.902 1030.41 882.302 1032.28C876.569 1034.28 868.302 1037.34 863.902 1039.08C859.502 1040.68 850.036 1044.41 842.969 1047.08C835.769 1049.88 829.902 1052.54 829.902 1053.21C829.902 1053.74 828.036 1054.68 825.636 1055.08C823.369 1055.61 816.302 1058.14 810.036 1060.68C795.902 1066.41 784.702 1070.68 775.902 1073.74C772.302 1075.08 768.969 1076.54 768.569 1077.08C767.902 1078.14 761.769 1080.68 742.569 1088.14C736.036 1090.68 725.902 1094.68 720.036 1096.94C714.302 1099.21 708.836 1101.08 707.902 1101.08C706.836 1101.08 705.902 1101.61 705.636 1102.41C705.236 1103.48 689.102 1110.01 660.569 1120.54C655.769 1122.28 650.836 1124.41 649.636 1125.08C648.302 1125.88 646.302 1126.41 645.236 1126.41C644.169 1126.41 643.236 1126.94 643.236 1127.61C643.236 1128.81 641.902 1129.48 623.902 1135.74C617.369 1138.14 606.836 1142.01 600.569 1144.54C594.302 1147.08 588.569 1149.08 587.636 1149.08C586.836 1149.08 585.236 1149.88 584.302 1150.81C582.436 1152.68 576.836 1154.94 561.902 1160.41C548.836 1165.08 544.569 1166.68 532.302 1171.61C526.569 1173.88 521.102 1175.74 519.902 1175.74C518.836 1175.74 517.902 1176.28 517.902 1176.81C517.902 1177.48 515.369 1178.94 512.302 1180.28C509.102 1181.48 504.569 1183.48 502.169 1184.54C499.769 1185.61 497.102 1186.41 496.169 1186.41C493.102 1186.41 454.569 1201.74 453.502 1203.34C452.969 1204.28 451.636 1205.08 450.569 1205.08C448.569 1205.08 421.502 1216.14 408.036 1222.54C405.102 1224.01 401.902 1225.08 400.969 1225.08C400.036 1225.08 399.236 1225.61 399.236 1226.28C399.236 1227.34 356.836 1247.74 354.436 1247.74C353.636 1247.74 351.902 1248.81 350.436 1250.28C347.502 1252.94 330.836 1261.08 328.169 1261.08C327.236 1261.08 325.369 1262.01 324.036 1263.08C320.969 1265.48 298.969 1273.88 292.836 1275.08C290.569 1275.61 288.569 1276.41 288.569 1276.81C288.569 1277.34 285.502 1278.81 281.902 1280.14C274.036 1282.94 265.902 1289.61 265.902 1293.34C265.902 1294.68 266.436 1296.94 267.236 1298.28C267.902 1299.61 268.836 1304.54 269.102 1309.21C269.769 1316.28 270.436 1318.14 273.369 1320.54C276.702 1323.34 276.702 1323.48 274.702 1328.28C273.236 1332.01 272.969 1334.01 274.036 1335.88C274.836 1337.48 274.836 1340.14 274.036 1343.48C273.369 1346.14 272.436 1350.41 272.036 1352.68L271.369 1357.08H277.102C284.302 1357.08 301.902 1353.21 301.902 1351.61C301.902 1350.94 303.102 1350.41 304.569 1350.41C309.902 1350.41 363.236 1328.54 363.236 1326.41C363.236 1325.61 370.969 1321.74 399.902 1308.41C407.236 1304.94 413.502 1301.74 413.902 1301.08C414.969 1299.48 445.636 1284.81 455.636 1281.21C460.569 1279.34 464.569 1277.48 464.569 1276.94C464.569 1276.54 466.569 1275.34 468.969 1274.41C471.236 1273.61 478.702 1270.68 485.236 1268.14C491.902 1265.61 499.636 1262.68 502.569 1261.48C505.502 1260.41 509.102 1258.94 510.569 1258.28C512.036 1257.61 516.302 1256.14 519.902 1254.94C523.636 1253.74 526.836 1252.28 527.236 1251.61C527.636 1251.08 532.836 1248.81 538.569 1246.68C544.436 1244.54 553.769 1240.94 559.236 1238.81C564.702 1236.68 573.636 1233.21 578.836 1231.21C584.169 1229.21 588.569 1226.94 588.569 1226.28C588.569 1225.61 589.636 1225.08 590.969 1225.08C592.169 1225.08 597.769 1223.34 603.236 1221.21C608.702 1218.94 617.769 1215.61 623.236 1213.61C628.702 1211.61 633.769 1209.48 634.436 1208.81C635.236 1208.28 636.836 1207.74 638.169 1207.74C640.702 1207.74 650.036 1203.74 651.236 1202.14C651.636 1201.61 657.102 1199.34 663.236 1197.08C669.502 1194.81 680.036 1190.81 686.569 1188.41C693.236 1185.88 702.169 1182.54 706.569 1180.94C710.969 1179.34 714.836 1177.61 715.236 1177.08C716.169 1176.01 728.169 1170.41 729.769 1170.41C730.836 1170.41 746.702 1164.68 755.902 1161.08C757.369 1160.41 763.102 1158.28 768.569 1156.28C774.036 1154.28 778.836 1152.14 779.236 1151.61C780.302 1150.14 830.836 1130.41 833.769 1130.41C834.436 1130.41 835.636 1129.61 836.169 1128.68C836.702 1127.74 844.169 1124.41 852.569 1121.21C860.969 1118.14 870.969 1114.41 874.569 1112.94C878.302 1111.34 885.369 1108.68 890.569 1106.81C895.636 1104.94 900.169 1103.08 900.569 1102.41C900.969 1101.88 906.036 1099.74 911.902 1097.74C917.769 1095.74 930.969 1091.08 941.236 1087.48C951.503 1083.88 962.169 1080.14 964.969 1079.34C967.636 1078.54 969.903 1077.34 969.903 1076.81C969.903 1076.28 972.703 1074.94 976.303 1073.88C979.769 1072.81 986.836 1070.28 991.903 1068.41C997.103 1066.41 1005.1 1063.48 1009.9 1061.74C1014.7 1060.01 1021.24 1057.61 1024.57 1056.41C1027.9 1055.21 1030.84 1053.74 1031.24 1053.21C1031.64 1052.68 1043.37 1048.54 1057.24 1044.01C1071.24 1039.34 1087.5 1034.01 1093.64 1032.01C1099.64 1030.01 1104.57 1028.01 1104.57 1027.48C1104.57 1026.81 1105.5 1026.41 1106.57 1026.41C1107.77 1026.41 1113.24 1024.94 1118.97 1023.08C1138.17 1016.94 1175.5 1005.61 1180.97 1004.28C1182.97 1003.88 1184.57 1003.08 1184.57 1002.54C1184.57 1002.14 1188.3 1000.68 1192.97 999.475C1197.5 998.275 1212.04 994.275 1225.24 990.675C1238.44 987.075 1253.5 982.942 1258.57 981.609C1263.77 980.275 1268.17 978.809 1268.57 978.275C1268.97 977.875 1277.1 975.475 1286.57 973.075C1296.17 970.809 1306.97 968.009 1310.57 967.075C1314.3 966.009 1322.3 963.875 1328.57 962.275C1351.1 956.675 1361.24 953.742 1361.9 953.075C1362.3 952.542 1368.3 950.942 1375.24 949.209C1382.17 947.609 1392.7 945.209 1398.57 943.742C1404.44 942.409 1416.17 939.609 1424.57 937.742C1449.24 932.009 1457.24 930.009 1457.9 929.075C1458.3 928.542 1468.17 925.875 1479.9 923.075C1516.04 914.542 1526.17 912.275 1537.24 910.275C1541.64 909.475 1545.9 908.275 1546.57 907.742C1547.37 907.209 1550.7 906.275 1554.3 905.875C1557.77 905.342 1560.57 904.409 1560.57 903.875C1560.57 903.209 1562.17 902.409 1564.3 902.009C1566.3 901.609 1571.24 900.542 1575.24 899.742C1579.24 898.942 1586.44 897.475 1591.24 896.409C1607.77 892.542 1622.57 890.409 1632.97 890.409C1638.57 890.409 1644.3 889.875 1645.64 889.209C1646.84 888.542 1648.97 887.609 1650.3 887.209C1654.7 885.875 1655.5 879.742 1655.77 849.742C1656.04 812.409 1656.84 813.875 1635.64 813.475C1625.77 813.209 1619.64 813.742 1615.9 814.942Z" fill="#8A46CE"/>
  <path d="M920.83 1023.11C896.886 1031.82 880.669 1024.51 872.178 1001.18L773.219 737.892C739.337 738.404 687.558 711.71 617.881 657.811C587.9 634.655 562.19 612.726 540.749 592.024C519.923 571.098 494.573 543.476 464.701 509.157C462.132 505.92 460.177 502.46 458.837 498.776C455.932 490.795 457.046 482.394 462.178 473.573C467.925 464.529 475.71 458.219 485.533 454.644C500.881 449.058 517.07 455.333 534.1 473.469C567.322 509.35 591.052 534.433 605.29 548.718C619.918 562.166 641.497 580.384 670.027 603.373C697.273 624.743 721.196 641.761 741.796 654.425C762.397 667.09 778.223 671.411 789.273 667.389C808.305 660.462 825.234 618.147 840.058 540.444C845.464 511.361 849.642 482.725 852.592 454.536C855.542 426.347 858.211 391.655 860.599 350.461C861.098 338.46 863.133 329.724 866.704 324.253C870.274 318.781 875.743 314.705 883.11 312.024C894.161 308.001 904.599 308.026 914.424 312.098C924.64 315.332 931.424 321.554 934.776 330.763C936.34 335.061 936.871 339.386 936.37 343.74C934.822 392.972 932.601 432.715 929.707 462.97C926.814 493.224 922.245 522.697 916.002 551.39C907.028 593.591 895.791 628.62 882.291 656.477C868.791 684.334 856.07 702.869 844.128 712.083L942.417 973.534C951.355 998.091 944.159 1014.62 920.83 1023.11Z" fill="#8A46CE"/>
</svg>